Khula-wt439.67.ufo
<glyph name="exclam.deva" format="1">
  <advance width="601"/>
  <unicode hex="0021"/>
  <outline>
    <contour>
      <point x="375" y="390" type="line"/>
      <point x="226" y="390" type="line"/>
      <point x="180" y="1316" type="line"/>
      <point x="421" y="1316" type="line"/>
    </contour>
    <contour>
      <point x="169" y="110" type="curve" smooth="yes"/>
      <point x="169" y="199"/>
      <point x="213" y="246"/>
      <point x="299" y="246" type="curve" smooth="yes"/>
      <point x="383" y="246"/>
      <point x="429" y="197"/>
      <point x="429" y="110" type="curve" smooth="yes"/>
      <point x="429" y="25"/>
      <point x="380" y="-25"/>
      <point x="299" y="-25" type="curve" smooth="yes"/>
      <point x="221" y="-25"/>
      <point x="169" y="18"/>
    </contour>
  </outline>
</glyph>
<glyph name="quotedbl.deva" format="1">
  <advance width="1140"/>
  <unicode hex="0022"/>
  <outline>
    <contour>
      <point x="496" y="1316" type="line"/>
      <point x="460" y="841" type="line"/>
      <point x="325" y="841" type="line"/>
      <point x="288" y="1316" type="line"/>
    </contour>
    <contour>
      <point x="852" y="1316" type="line"/>
      <point x="815" y="841" type="line"/>
      <point x="680" y="841" type="line"/>
      <point x="643" y="1316" type="line"/>
    </contour>
  </outline>
</glyph>
<glyph name="numbersign.deva" format="1">
  <advance width="1199"/>
  <unicode hex="0023"/>
  <outline>
    <contour>
      <point x="898" y="788" type="line"/>
      <point x="847" y="524" type="line"/>
      <point x="1092" y="524" type="line"/>
      <point x="1092" y="378" type="line"/>
      <point x="820" y="378" type="line"/>
      <point x="746" y="0" type="line"/>
      <point x="592" y="0" type="line"/>
      <point x="665" y="378" type="line"/>
      <point x="425" y="378" type="line"/>
      <point x="353" y="0" type="line"/>
      <point x="199" y="0" type="line"/>
      <point x="270" y="378" type="line"/>
      <point x="42" y="378" type="line"/>
      <point x="42" y="524" type="line"/>
      <point x="298" y="524" type="line"/>
      <point x="350" y="788" type="line"/>
      <point x="110" y="788" type="line"/>
      <point x="110" y="935" type="line"/>
      <point x="376" y="935" type="line"/>
      <point x="448" y="1316" type="line"/>
      <point x="604" y="1316" type="line"/>
      <point x="532" y="935" type="line"/>
      <point x="773" y="935" type="line"/>
      <point x="845" y="1316" type="line"/>
      <point x="999" y="1316" type="line"/>
      <point x="925" y="935" type="line"/>
      <point x="1155" y="935" type="line"/>
      <point x="1155" y="788" type="line"/>
    </contour>
    <contour>
      <point x="452" y="524" type="line"/>
      <point x="692" y="524" type="line"/>
      <point x="743" y="788" type="line"/>
      <point x="503" y="788" type="line"/>
    </contour>
  </outline>
</glyph>
<glyph name="quotesingle.deva" format="1">
  <advance width="486"/>
  <unicode hex="0027"/>
  <outline>
    <contour>
      <point x="347" y="1316" type="line"/>
      <point x="311" y="841" type="line"/>
      <point x="176" y="841" type="line"/>
      <point x="139" y="1316" type="line"/>
    </contour>
  </outline>
</glyph>
<glyph name="parenright.deva" format="1">
  <advance width="629"/>
  <unicode hex="0029"/>
  <outline>
    <contour>
      <point x="532" y="510" type="curve" smooth="yes"/>
      <point x="532" y="188"/>
      <point x="439" y="-92"/>
      <point x="266" y="-292" type="curve"/>
      <point x="82" y="-292" type="line"/>
      <point x="163" y="-182"/>
      <point x="226" y="-57"/>
      <point x="269" y="82" type="curve" smooth="yes"/>
      <point x="312" y="221"/>
      <point x="334" y="364"/>
      <point x="334" y="512" type="curve" smooth="yes"/>
      <point x="334" y="811"/>
      <point x="248" y="1098"/>
      <point x="80" y="1326" type="curve"/>
      <point x="266" y="1326" type="line"/>
      <point x="440" y="1118"/>
      <point x="532" y="832"/>
    </contour>
  </outline>
</glyph>
<glyph name="plus.deva" format="1">
  <advance width="1051"/>
  <unicode hex="002B"/>
  <outline>
    <contour>
      <point x="537" y="663" type="line"/>
      <point x="717" y="663" type="line"/>
      <point x="717" y="637" type="line"/>
      <point x="537" y="637" type="line"/>
      <point x="537" y="446" type="line"/>
      <point x="511" y="446" type="line"/>
      <point x="511" y="637" type="line"/>
      <point x="332" y="637" type="line"/>
      <point x="332" y="663" type="line"/>
      <point x="511" y="663" type="line"/>
      <point x="511" y="856" type="line"/>
      <point x="537" y="856" type="line"/>
    </contour>
  </outline>
</glyph>
<glyph name="period.deva" format="1">
  <advance width="519"/>
  <unicode hex="002E"/>
  <outline>
    <contour>
      <point x="124" y="110" type="curve" smooth="yes"/>
      <point x="124" y="199"/>
      <point x="170" y="246"/>
      <point x="254" y="246" type="curve" smooth="yes"/>
      <point x="336" y="246"/>
      <point x="384" y="199"/>
      <point x="384" y="110" type="curve" smooth="yes"/>
      <point x="384" y="24"/>
      <point x="334" y="-25"/>
      <point x="254" y="-25" type="curve" smooth="yes"/>
      <point x="177" y="-25"/>
      <point x="124" y="18"/>
    </contour>
  </outline>
</glyph>
<glyph name="slash.deva" format="1">
  <advance width="719"/>
  <unicode hex="002F"/>
  <outline>
    <contour>
      <point x="704" y="1316" type="line"/>
      <point x="214" y="0" type="line"/>
      <point x="14" y="0" type="line"/>
      <point x="505" y="1316" type="line"/>
    </contour>
  </outline>
</glyph>
<glyph name="seven.deva" format="1">
  <advance width="1052"/>
  <unicode hex="0037"/>
  <outline>
    <contour>
      <point x="230" y="0" type="line"/>
      <point x="751" y="1128" type="line"/>
      <point x="67" y="1128" type="line"/>
      <point x="67" y="1314" type="line"/>
      <point x="976" y="1314" type="line"/>
      <point x="976" y="1166" type="line"/>
      <point x="459" y="0" type="line"/>
    </contour>
  </outline>
</glyph>
<glyph name="less.deva" format="1">
  <advance width="1051"/>
  <unicode hex="003C"/>
  <outline>
    <contour>
      <point x="963" y="202" type="line"/>
      <point x="86" y="589" type="line"/>
      <point x="86" y="695" type="line"/>
      <point x="963" y="1132" type="line"/>
      <point x="963" y="963" type="line"/>
      <point x="299" y="650" type="line"/>
      <point x="963" y="373" type="line"/>
    </contour>
  </outline>
</glyph>
<glyph name="equal.deva" format="1">
  <advance width="1051"/>
  <unicode hex="003D"/>
  <outline>
    <contour>
      <point x="96" y="761" type="line"/>
      <point x="96" y="917" type="line"/>
      <point x="953" y="917" type="line"/>
      <point x="953" y="761" type="line"/>
    </contour>
    <contour>
      <point x="96" y="382" type="line"/>
      <point x="96" y="538" type="line"/>
      <point x="953" y="538" type="line"/>
      <point x="953" y="382" type="line"/>
    </contour>
  </outline>
</glyph>
<glyph name="question.deva" format="1">
  <advance width="913"/>
  <unicode hex="003F"/>
  <outline>
    <contour>
      <point x="0" y="0" type="line"/>
      <point x="913" y="0" type="line"/>
      <point x="913" y="20" type="line"/>
      <point x="0" y="20" type="line"/>
    </contour>
  </outline>
</glyph>
<glyph name="E" format="1">
  <advance width="1021"/>
  <unicode hex="0045"/>
  <outline>
    <contour>
      <point x="916" y="0" type="line"/>
      <point x="170" y="0" type="line"/>
      <point x="170" y="1316" type="line"/>
      <point x="916" y="1316" type="line"/>
      <point x="916" y="1140" type="line"/>
      <point x="378" y="1140" type="line"/>
      <point x="378" y="774" type="line"/>
      <point x="883" y="774" type="line"/>
      <point x="883" y="599" type="line"/>
      <point x="378" y="599" type="line"/>
      <point x="378" y="178" type="line"/>
      <point x="916" y="178" type="line"/>
    </contour>
  </outline>
</glyph>
<glyph name="G" format="1">
  <advance width="1348"/>
  <unicode hex="0047"/>
  <outline>
    <contour>
      <point x="0" y="0" type="line"/>
      <point x="1348" y="0" type="line"/>
      <point x="1348" y="20" type="line"/>
      <point x="0" y="20" type="line"/>
    </contour>
  </outline>
</glyph>
<glyph name="N" format="1">
  <advance width="1420"/>
  <unicode hex="004E"/>
  <outline>
    <contour>
      <point x="1254" y="0" type="line"/>
      <point x="997" y="0" type="line"/>
      <point x="349" y="1062" type="line"/>
      <point x="341" y="1062" type="line"/>
      <point x="350" y="920"/>
      <point x="354" y="812"/>
      <point x="354" y="739" type="curve" smooth="yes"/>
      <point x="354" y="0" type="line"/>
      <point x="167" y="0" type="line"/>
      <point x="167" y="1316" type="line"/>
      <point x="423" y="1316" type="line"/>
      <point x="1069" y="260" type="line"/>
      <point x="1075" y="260" type="line"/>
      <point x="1068" y="379"/>
      <point x="1065" y="483"/>
      <point x="1065" y="573" type="curve" smooth="yes"/>
      <point x="1065" y="1316" type="line"/>
      <point x="1254" y="1316" type="line"/>
    </contour>
  </outline>
</glyph>
<glyph name="P" format="1">
  <advance width="1138"/>
  <unicode hex="0050"/>
  <outline>
    <contour>
      <point x="1048" y="927" type="curve" smooth="yes"/>
      <point x="1048" y="653"/>
      <point x="851" y="493"/>
      <point x="496" y="493" type="curve" smooth="yes"/>
      <point x="384" y="493" type="line"/>
      <point x="384" y="0" type="line"/>
      <point x="177" y="0" type="line"/>
      <point x="177" y="1316" type="line"/>
      <point x="534" y="1316" type="line"/>
      <point x="878" y="1316"/>
      <point x="1048" y="1186"/>
    </contour>
    <contour>
      <point x="384" y="672" type="line"/>
      <point x="484" y="672" type="line"/>
      <point x="607" y="672"/>
      <point x="697" y="692"/>
      <point x="754" y="730" type="curve" smooth="yes"/>
      <point x="810" y="770"/>
      <point x="837" y="832"/>
      <point x="837" y="917" type="curve" smooth="yes"/>
      <point x="837" y="1067"/>
      <point x="736" y="1139"/>
      <point x="513" y="1139" type="curve" smooth="yes"/>
      <point x="384" y="1139" type="line"/>
    </contour>
  </outline>
</glyph>
<glyph name="S" format="1">
  <advance width="1026"/>
  <unicode hex="0053"/>
  <outline>
    <contour>
      <point x="945" y="363" type="curve"/>
      <point x="945" y="213"/>
      <point x="859" y="100"/>
      <point x="713" y="53" type="curve"/>
      <point x="628" y="5"/>
      <point x="525" y="-16"/>
      <point x="404" y="-13" type="curve" smooth="yes"/>
      <point x="274" y="-10"/>
      <point x="170" y="11"/>
      <point x="91" y="48" type="curve"/>
      <point x="91" y="242" type="line"/>
      <point x="188" y="199"/>
      <point x="304" y="171"/>
      <point x="415" y="166" type="curve" smooth="yes"/>
      <point x="584" y="160"/>
      <point x="678" y="217"/>
      <point x="695" y="318" type="curve" smooth="yes"/>
      <point x="723" y="351"/>
      <point x="730" y="389"/>
      <point x="716" y="426" type="curve" smooth="yes"/>
      <point x="703" y="452"/>
      <point x="679" y="476"/>
      <point x="644" y="498" type="curve" smooth="yes"/>
      <point x="610" y="520"/>
      <point x="559" y="544"/>
      <point x="489" y="570" type="curve" smooth="yes"/>
      <point x="394" y="606"/>
      <point x="314" y="652"/>
      <point x="250" y="707" type="curve" smooth="yes"/>
      <point x="188" y="761"/>
      <point x="152" y="828"/>
      <point x="140" y="909" type="curve" smooth="yes"/>
      <point x="117" y="1003"/>
      <point x="134" y="1087"/>
      <point x="189" y="1165" type="curve" smooth="yes"/>
      <point x="246" y="1242"/>
      <point x="331" y="1289"/>
      <point x="446" y="1307" type="curve" smooth="yes"/>
      <point x="566" y="1326"/>
      <point x="686" y="1317"/>
      <point x="808" y="1282" type="curve" smooth="yes"/>
      <point x="845" y="1282"/>
      <point x="847" y="1176"/>
      <point x="885" y="1159" type="curve"/>
      <point x="806" y="1193"/>
      <point x="700" y="1135"/>
      <point x="625" y="1135" type="curve"/>
      <point x="473" y="1151"/>
      <point x="374" y="1104"/>
      <point x="350" y="1014" type="curve" smooth="yes"/>
      <point x="325" y="981"/>
      <point x="320" y="943"/>
      <point x="333" y="909" type="curve" smooth="yes"/>
      <point x="345" y="881"/>
      <point x="370" y="856"/>
      <point x="406" y="832" type="curve" smooth="yes"/>
      <point x="442" y="809"/>
      <point x="506" y="779"/>
      <point x="598" y="743" type="curve" smooth="yes"/>
      <point x="730" y="694"/>
      <point x="820" y="640"/>
      <point x="870" y="583" type="curve"/>
      <point x="920" y="526"/>
      <point x="945" y="453"/>
    </contour>
  </outline>
</glyph>
<glyph name="T" format="1">
  <advance width="1039"/>
  <unicode hex="0054"/>
  <outline>
    <contour>
      <point x="623" y="0" type="line"/>
      <point x="415" y="0" type="line"/>
      <point x="415" y="1138" type="line"/>
      <point x="24" y="1138" type="line"/>
      <point x="24" y="1316" type="line"/>
      <point x="1014" y="1316" type="line"/>
      <point x="1014" y="1138" type="line"/>
      <point x="623" y="1138" type="line"/>
    </contour>
  </outline>
</glyph>
<glyph name="U" format="1">
  <advance width="1356"/>
  <unicode hex="0055"/>
  <outline>
    <contour>
      <point x="1197" y="1316" type="line"/>
      <point x="1197" y="480" type="line"/>
      <point x="1197" y="324"/>
      <point x="1151" y="202"/>
      <point x="1058" y="114" type="curve" smooth="yes"/>
      <point x="967" y="26"/>
      <point x="838" y="-18"/>
      <point x="673" y="-18" type="curve" smooth="yes"/>
      <point x="508" y="-18"/>
      <point x="382" y="26"/>
      <point x="292" y="113" type="curve"/>
      <point x="203" y="202"/>
      <point x="158" y="324"/>
      <point x="158" y="481" type="curve" smooth="yes"/>
      <point x="158" y="1316" type="line"/>
      <point x="366" y="1316" type="line"/>
      <point x="366" y="480" type="line"/>
      <point x="366" y="269"/>
      <point x="475" y="160"/>
      <point x="681" y="160" type="curve" smooth="yes"/>
      <point x="882" y="160"/>
      <point x="990" y="270"/>
      <point x="990" y="482" type="curve" smooth="yes"/>
      <point x="990" y="1316" type="line"/>
    </contour>
  </outline>
</glyph>
<glyph name="backslash.deva" format="1">
  <advance width="714"/>
  <unicode hex="005C"/>
  <outline>
    <contour>
      <point x="207" y="1321" type="line"/>
      <point x="700" y="-5" type="line"/>
      <point x="506" y="-5" type="line"/>
      <point x="17" y="1321" type="line"/>
    </contour>
  </outline>
</glyph>
<glyph name="bracketright.deva" format="1">
  <advance width="605"/>
  <unicode hex="005D"/>
  <outline>
    <contour>
      <point x="45" y="-142" type="line"/>
      <point x="279" y="-142" type="line"/>
      <point x="279" y="1171" type="line"/>
      <point x="45" y="1171" type="line"/>
      <point x="45" y="1326" type="line"/>
      <point x="466" y="1326" type="line"/>
      <point x="466" y="-297" type="line"/>
      <point x="45" y="-297" type="line"/>
    </contour>
  </outline>
</glyph>
<glyph name="asciicircum.deva" format="1">
  <advance width="952"/>
  <unicode hex="005E"/>
  <outline>
    <contour>
      <point x="13" y="488" type="line"/>
      <point x="379" y="1326" type="line"/>
      <point x="493" y="1326" type="line"/>
      <point x="935" y="488" type="line"/>
      <point x="756" y="488" type="line"/>
      <point x="440" y="1121" type="line"/>
      <point x="192" y="488" type="line"/>
    </contour>
  </outline>
</glyph>
<glyph name="a" format="1">
  <advance width="1058"/>
  <unicode hex="0061"/>
  <outline>
    <contour>
      <point x="0" y="0" type="line"/>
      <point x="1058" y="0" type="line"/>
      <point x="1058" y="20" type="line"/>
      <point x="0" y="20" type="line"/>
    </contour>
  </outline>
</glyph>
<glyph name="b" format="1">
  <advance width="1144"/>
  <unicode hex="0062"/>
  <outline>
    <contour>
      <point x="0" y="0" type="line"/>
      <point x="1144" y="0" type="line"/>
      <point x="1144" y="20" type="line"/>
      <point x="0" y="20" type="line"/>
    </contour>
  </outline>
</glyph>
<glyph name="g" format="1">
  <advance width="1039"/>
  <unicode hex="0067"/>
  <outline>
    <contour>
      <point x="0" y="0" type="line"/>
      <point x="1039" y="0" type="line"/>
      <point x="1039" y="20" type="line"/>
      <point x="0" y="20" type="line"/>
    </contour>
  </outline>
</glyph>
<glyph name="i" format="1">
  <advance width="502"/>
  <unicode hex="0069"/>
  <outline>
    <contour>
      <point x="353" y="0" type="line"/>
      <point x="149" y="0" type="line"/>
      <point x="149" y="995" type="line"/>
      <point x="353" y="995" type="line"/>
    </contour>
    <contour>
      <point x="137" y="1259" type="curve" smooth="yes"/>
      <point x="137" y="1338"/>
      <point x="179" y="1374"/>
      <point x="252" y="1374" type="curve" smooth="yes"/>
      <point x="322" y="1374"/>
      <point x="367" y="1336"/>
      <point x="367" y="1259" type="curve" smooth="yes"/>
      <point x="367" y="1182"/>
      <point x="321" y="1145"/>
      <point x="252" y="1145" type="curve" smooth="yes"/>
      <point x="181" y="1145"/>
      <point x="137" y="1182"/>
    </contour>
  </outline>
</glyph>
<glyph name="n" format="1">
  <advance width="1159"/>
  <unicode hex="006E"/>
  <outline>
    <contour>
      <point x="815" y="0" type="line"/>
      <point x="815" y="616" type="line"/>
      <point x="815" y="770"/>
      <point x="753" y="846"/>
      <point x="616" y="846" type="curve" smooth="yes"/>
      <point x="525" y="846"/>
      <point x="458" y="819"/>
      <point x="416" y="765" type="curve" smooth="yes"/>
      <point x="374" y="712"/>
      <point x="352" y="623"/>
      <point x="352" y="498" type="curve" smooth="yes"/>
      <point x="352" y="0" type="line"/>
      <point x="148" y="0" type="line"/>
      <point x="148" y="995" type="line"/>
      <point x="309" y="995" type="line"/>
      <point x="338" y="863" type="line"/>
      <point x="349" y="863" type="line"/>
      <point x="410" y="959"/>
      <point x="525" y="1013"/>
      <point x="661" y="1013" type="curve" smooth="yes"/>
      <point x="895" y="1013"/>
      <point x="1019" y="896"/>
      <point x="1019" y="648" type="curve" smooth="yes"/>
      <point x="1019" y="0" type="line"/>
    </contour>
  </outline>
</glyph>
<glyph name="u" format="1">
  <advance width="1170"/>
  <unicode hex="0075"/>
  <outline>
    <contour>
      <point x="351" y="993" type="line"/>
      <point x="351" y="347" type="line"/>
      <point x="351" y="220"/>
      <point x="414" y="146"/>
      <point x="553" y="146" type="curve" smooth="yes"/>
      <point x="734" y="146"/>
      <point x="812" y="247"/>
      <point x="812" y="495" type="curve" smooth="yes"/>
      <point x="812" y="993" type="line"/>
      <point x="1017" y="993" type="line"/>
      <point x="1017" y="0" type="line"/>
      <point x="852" y="0" type="line"/>
      <point x="824" y="129" type="line"/>
      <point x="815" y="129" type="line"/>
      <point x="755" y="37"/>
      <point x="642" y="-18"/>
      <point x="525" y="-18" type="curve" smooth="yes"/>
      <point x="270" y="-18"/>
      <point x="144" y="80"/>
      <point x="144" y="343" type="curve" smooth="yes"/>
      <point x="144" y="993" type="line"/>
    </contour>
  </outline>
</glyph>
<glyph name="braceleft.deva" format="1">
  <advance width="790"/>
  <unicode hex="007B"/>
  <outline>
    <contour>
      <point x="320" y="358" type="line" smooth="yes"/>
      <point x="320" y="470"/>
      <point x="240" y="526"/>
      <point x="80" y="526" type="curve"/>
      <point x="80" y="698" type="line"/>
      <point x="243" y="698"/>
      <point x="320" y="751"/>
      <point x="320" y="863" type="curve" smooth="yes"/>
      <point x="320" y="1143" type="line" smooth="yes"/>
      <point x="320" y="1330"/>
      <point x="450" y="1416"/>
      <point x="710" y="1416" type="curve"/>
      <point x="710" y="1252" type="line"/>
      <point x="574" y="1245"/>
      <point x="515" y="1198"/>
      <point x="515" y="1099" type="curve" smooth="yes"/>
      <point x="515" y="832" type="line" smooth="yes"/>
      <point x="515" y="713"/>
      <point x="446" y="641"/>
      <point x="309" y="617" type="curve"/>
      <point x="309" y="607" type="line"/>
      <point x="446" y="585"/>
      <point x="515" y="514"/>
      <point x="515" y="393" type="curve" smooth="yes"/>
      <point x="515" y="124" type="line" smooth="yes"/>
      <point x="515" y="25"/>
      <point x="573" y="-24"/>
      <point x="710" y="-27" type="curve"/>
      <point x="710" y="-192" type="line"/>
      <point x="572" y="-191"/>
      <point x="472" y="-167"/>
      <point x="411" y="-121" type="curve" smooth="yes"/>
      <point x="350" y="-75"/>
      <point x="320" y="-1"/>
      <point x="320" y="102" type="curve" smooth="yes"/>
    </contour>
  </outline>
</glyph>
<glyph name="bar.deva" format="1">
  <advance width="994"/>
  <unicode hex="007C"/>
  <outline>
    <contour>
      <point x="419" y="1400" type="line"/>
      <point x="576" y="1400" type="line"/>
      <point x="576" y="-434" type="line"/>
      <point x="419" y="-434" type="line"/>
    </contour>
  </outline>
</glyph>
<glyph name="asciitilde.deva" format="1">
  <advance width="1051"/>
  <unicode hex="007E"/>
  <outline>
    <contour>
      <point x="296" y="626" type="curve" smooth="yes"/>
      <point x="231" y="626"/>
      <point x="153" y="583"/>
      <point x="86" y="517" type="curve"/>
      <point x="86" y="684" type="line"/>
      <point x="147" y="749"/>
      <point x="221" y="782"/>
      <point x="310" y="782" type="curve" smooth="yes"/>
      <point x="351" y="782"/>
      <point x="389" y="778"/>
      <point x="423" y="769" type="curve" smooth="yes"/>
      <point x="458" y="761"/>
      <point x="502" y="746"/>
      <point x="555" y="723" type="curve" smooth="yes"/>
      <point x="635" y="690"/>
      <point x="694" y="674"/>
      <point x="752" y="674" type="curve" smooth="yes"/>
      <point x="816" y="674"/>
      <point x="898" y="714"/>
      <point x="963" y="783" type="curve"/>
      <point x="963" y="616" type="line"/>
      <point x="901" y="550"/>
      <point x="827" y="517"/>
      <point x="739" y="517" type="curve" smooth="yes"/>
      <point x="664" y="517"/>
      <point x="603" y="532"/>
      <point x="529" y="563" type="curve" smooth="yes"/>
      <point x="486" y="580"/>
      <point x="447" y="594"/>
      <point x="414" y="605" type="curve" smooth="yes"/>
      <point x="373" y="619"/>
      <point x="334" y="626"/>
    </contour>
  </outline>
</glyph>
<glyph name="multiply.deva" format="1">
  <advance width="1051"/>
  <unicode hex="00D7"/>
  <outline>
    <contour>
      <point x="712" y="948" type="line"/>
      <point x="710" y="948" type="line"/>
      <point x="524" y="762" type="line"/>
      <point x="819" y="466" type="line"/>
      <point x="822" y="465" type="line"/>
      <point x="635" y="652" type="line"/>
      <point x="340" y="354" type="line"/>
      <point x="339" y="353" type="line"/>
      <point x="524" y="540" type="line"/>
      <point x="227" y="837" type="line"/>
      <point x="227" y="838" type="line"/>
      <point x="415" y="650" type="line"/>
    </contour>
  </outline>
</glyph>
<glyph name="aadeva" format="1">
  <advance width="2211"/>
  <unicode hex="0906"/>
  <outline>
    <contour>
      <point x="633" y="812" type="line"/>
      <point x="786" y="736"/>
      <point x="882" y="631"/>
      <point x="882" y="469" type="curve" smooth="yes"/>
      <point x="882" y="293"/>
      <point x="743" y="146"/>
      <point x="522" y="146" type="curve" smooth="yes"/>
      <point x="358" y="146"/>
      <point x="227" y="202"/>
      <point x="94" y="298" type="curve"/>
      <point x="140" y="457" type="line"/>
      <point x="262" y="363"/>
      <point x="368" y="318"/>
      <point x="484" y="318" type="curve" smooth="yes"/>
      <point x="619" y="318"/>
      <point x="693" y="391"/>
      <point x="693" y="497" type="curve" smooth="yes"/>
      <point x="693" y="588"/>
      <point x="629" y="661"/>
      <point x="511" y="710" type="curve"/>
    </contour>
    <contour>
      <point x="831" y="985" type="curve" smooth="yes"/>
      <point x="831" y="799"/>
      <point x="664" y="658"/>
      <point x="332" y="650" type="curve" smooth="yes"/>
      <point x="317" y="649" type="line"/>
      <point x="280" y="810" type="line"/>
      <point x="289" y="810" type="line"/>
      <point x="552" y="816"/>
      <point x="653" y="902"/>
      <point x="653" y="1001" type="curve" smooth="yes"/>
      <point x="653" y="1078"/>
      <point x="588" y="1129"/>
      <point x="478" y="1129" type="curve" smooth="yes"/>
      <point x="387" y="1129"/>
      <point x="297" y="1099"/>
      <point x="205" y="1047" type="curve"/>
      <point x="151" y="1211" type="line"/>
      <point x="242" y="1257"/>
      <point x="352" y="1291"/>
      <point x="483" y="1291" type="curve" smooth="yes"/>
      <point x="708" y="1291"/>
      <point x="831" y="1166"/>
    </contour>
    <contour>
      <point x="745" y="671" type="line"/>
      <point x="807" y="649"/>
      <point x="867" y="641"/>
      <point x="950" y="641" type="curve" smooth="yes"/>
      <point x="1037" y="641"/>
      <point x="1141" y="665"/>
      <point x="1205" y="715" type="curve"/>
      <point x="1205" y="516" type="line"/>
      <point x="1166" y="499"/>
      <point x="1081" y="482"/>
      <point x="1002" y="482" type="curve" smooth="yes"/>
      <point x="918" y="482"/>
      <point x="848" y="492"/>
      <point x="771" y="505" type="curve"/>
    </contour>
    <contour>
      <point x="1780" y="1169" type="line"/>
      <point x="1986" y="1169" type="line"/>
      <point x="1986" y="0" type="line"/>
      <point x="1780" y="0" type="line"/>
    </contour>
    <contour>
      <point x="1177" y="1169" type="line"/>
      <point x="1384" y="1169" type="line"/>
      <point x="1384" y="0" type="line"/>
      <point x="1177" y="0" type="line"/>
    </contour>
    <contour>
      <point x="2240" y="1136" type="line"/>
      <point x="972" y="1136" type="line"/>
      <point x="972" y="1283" type="line"/>
      <point x="2240" y="1283" type="line"/>
    </contour>
  </outline>
</glyph>
<glyph name="udeva" format="1">
  <advance width="1083"/>
  <unicode hex="0909"/>
  <outline>
    <contour>
      <point x="317" y="604" type="line"/>
      <point x="279" y="773" type="line"/>
      <point x="294" y="774" type="line"/>
      <point x="588" y="783"/>
      <point x="684" y="871"/>
      <point x="684" y="980" type="curve" smooth="yes"/>
      <point x="684" y="1054"/>
      <point x="643" y="1114"/>
      <point x="539" y="1154" type="curve"/>
      <point x="630" y="1264" type="line"/>
      <point x="788" y="1213"/>
      <point x="872" y="1120"/>
      <point x="872" y="959" type="curve" smooth="yes"/>
      <point x="872" y="770"/>
      <point x="707" y="618"/>
      <point x="332" y="605" type="curve" smooth="yes"/>
    </contour>
    <contour>
      <point x="-30" y="1136" type="line"/>
      <point x="-30" y="1283" type="line"/>
      <point x="1113" y="1283" type="line"/>
      <point x="1113" y="1136" type="line"/>
    </contour>
    <contour>
      <point x="661" y="770" type="line"/>
      <point x="854" y="683"/>
      <point x="959" y="540"/>
      <point x="959" y="376" type="curve" smooth="yes"/>
      <point x="959" y="176"/>
      <point x="807" y="32"/>
      <point x="564" y="32" type="curve" smooth="yes"/>
      <point x="399" y="32"/>
      <point x="231" y="91"/>
      <point x="71" y="200" type="curve"/>
      <point x="127" y="365" type="line"/>
      <point x="261" y="265"/>
      <point x="409" y="208"/>
      <point x="537" y="208" type="curve" smooth="yes"/>
      <point x="676" y="208"/>
      <point x="766" y="283"/>
      <point x="766" y="400" type="curve" smooth="yes"/>
      <point x="766" y="506"/>
      <point x="680" y="611"/>
      <point x="527" y="657" type="curve"/>
    </contour>
    <contour>
      <point x="569" y="1283" type="move" name="top"/>
    </contour>
  </outline>
</glyph>
<glyph name="rvocalicdeva" format="1">
  <advance width="1645"/>
  <unicode hex="090B"/>
  <outline>
    <contour>
      <point x="1076" y="1136" type="line"/>
      <point x="1076" y="1283" type="line"/>
      <point x="1675" y="1283" type="line"/>
      <point x="1675" y="1136" type="line"/>
    </contour>
    <contour>
      <point x="898" y="697" type="line"/>
      <point x="936" y="669"/>
      <point x="972" y="657"/>
      <point x="1035" y="657" type="curve" smooth="yes"/>
      <point x="1125" y="657"/>
      <point x="1204" y="679"/>
      <point x="1283" y="737" type="curve"/>
      <point x="1217" y="659" type="line"/>
      <point x="1184" y="706"/>
      <point x="1171" y="738"/>
      <point x="1171" y="772" type="curve" smooth="yes"/>
      <point x="1171" y="818"/>
      <point x="1207" y="858"/>
      <point x="1296" y="858" type="curve" smooth="yes"/>
      <point x="1415" y="858"/>
      <point x="1501" y="799"/>
      <point x="1501" y="730" type="curve" smooth="yes"/>
      <point x="1501" y="617"/>
      <point x="1299" y="486"/>
      <point x="1043" y="486" type="curve" smooth="yes"/>
      <point x="965" y="486"/>
      <point x="902" y="500"/>
      <point x="825" y="532" type="curve"/>
    </contour>
    <contour>
      <point x="1252" y="592" type="curve"/>
      <point x="1395" y="672" type="line"/>
      <point x="1488" y="552"/>
      <point x="1544" y="442"/>
      <point x="1544" y="340" type="curve" smooth="yes"/>
      <point x="1544" y="211"/>
      <point x="1450" y="100"/>
      <point x="1248" y="66" type="curve"/>
      <point x="1152" y="197" type="line"/>
      <point x="1308" y="234"/>
      <point x="1359" y="292"/>
      <point x="1359" y="374" type="curve" smooth="yes"/>
      <point x="1359" y="433"/>
      <point x="1327" y="500"/>
    </contour>
    <component base="taradeva"/>
    <contour>
      <point x="833" y="1261" type="move" name="mark0"/>
    </contour>
  </outline>
</glyph>
<glyph name="khadeva" format="1">
  <advance width="1719"/>
  <unicode hex="0916"/>
  <outline>
    <contour>
      <point x="1322" y="671" type="curve"/>
      <point x="1322" y="449" type="line"/>
      <point x="1257" y="403"/>
      <point x="1176" y="379"/>
      <point x="1085" y="379" type="curve" smooth="yes"/>
      <point x="882" y="379"/>
      <point x="741" y="521"/>
      <point x="741" y="696" type="curve" smooth="yes"/>
      <point x="741" y="844"/>
      <point x="852" y="964"/>
      <point x="1049" y="964" type="curve" smooth="yes"/>
      <point x="1163" y="964"/>
      <point x="1253" y="942"/>
      <point x="1334" y="900" type="curve"/>
      <point x="1334" y="747" type="line"/>
      <point x="1260" y="793"/>
      <point x="1173" y="816"/>
      <point x="1087" y="816" type="curve" smooth="yes"/>
      <point x="974" y="816"/>
      <point x="912" y="747"/>
      <point x="912" y="674" type="curve" smooth="yes"/>
      <point x="912" y="593"/>
      <point x="976" y="532"/>
      <point x="1068" y="532" type="curve" smooth="yes"/>
      <point x="1162" y="532"/>
      <point x="1250" y="583"/>
    </contour>
    <contour>
      <point x="233" y="675" type="line"/>
      <point x="404" y="732"/>
      <point x="448" y="818"/>
      <point x="448" y="971" type="curve" smooth="yes"/>
      <point x="448" y="1192" type="line"/>
      <point x="655" y="1192" type="line"/>
      <point x="655" y="956" type="line"/>
      <point x="655" y="766"/>
      <point x="606" y="600"/>
      <point x="352" y="493" type="curve"/>
    </contour>
    <contour>
      <point x="-30" y="1136" type="line"/>
      <point x="-30" y="1283" type="line"/>
      <point x="1749" y="1283" type="line"/>
      <point x="1749" y="1136" type="line"/>
    </contour>
    <contour>
      <point x="307" y="618" type="line"/>
      <point x="358" y="531"/>
      <point x="409" y="465"/>
      <point x="472" y="402" type="curve" smooth="yes"/>
      <point x="618" y="256"/>
      <point x="793" y="192"/>
      <point x="982" y="192" type="curve" smooth="yes"/>
      <point x="1133" y="192"/>
      <point x="1263" y="224"/>
      <point x="1387" y="295" type="curve"/>
      <point x="1439" y="130" type="line"/>
      <point x="1327" y="71"/>
      <point x="1180" y="33"/>
      <point x="973" y="33" type="curve" smooth="yes"/>
      <point x="727" y="33"/>
      <point x="501" y="125"/>
      <point x="326" y="299" type="curve" smooth="yes"/>
      <point x="226" y="398"/>
      <point x="133" y="541"/>
      <point x="84" y="639" type="curve" smooth="yes"/>
      <point x="65" y="677"/>
      <point x="53" y="711"/>
      <point x="53" y="736" type="curve" smooth="yes"/>
      <point x="53" y="788"/>
      <point x="94" y="827"/>
      <point x="144" y="827" type="curve" smooth="yes"/>
      <point x="194" y="827"/>
      <point x="224" y="804"/>
      <point x="265" y="747" type="curve" smooth="yes"/>
      <point x="325" y="648" type="line"/>
    </contour>
    <contour>
      <point x="1287" y="1169" type="line"/>
      <point x="1493" y="1169" type="line"/>
      <point x="1493" y="0" type="line"/>
      <point x="1287" y="0" type="line"/>
    </contour>
    <contour>
      <point x="1287" y="1283" type="move" name="top"/>
    </contour>
  </outline>
</glyph>
<glyph name="ghadeva" format="1">
  <advance width="1370"/>
  <unicode hex="0918"/>
  <outline>
    <contour>
      <point x="745" y="720" type="line"/>
      <point x="731" y="719" type="line"/>
      <point x="534" y="714"/>
      <point x="462" y="629"/>
      <point x="462" y="537" type="curve" smooth="yes"/>
      <point x="462" y="453"/>
      <point x="536" y="387"/>
      <point x="641" y="387" type="curve" smooth="yes"/>
      <point x="780" y="387"/>
      <point x="908" y="466"/>
      <point x="984" y="585" type="curve"/>
      <point x="984" y="314" type="line"/>
      <point x="903" y="256"/>
      <point x="794" y="215"/>
      <point x="664" y="215" type="curve" smooth="yes"/>
      <point x="419" y="215"/>
      <point x="272" y="369"/>
      <point x="272" y="560" type="curve" smooth="yes"/>
      <point x="272" y="721"/>
      <point x="388" y="885"/>
      <point x="681" y="885" type="curve" smooth="yes"/>
      <point x="692" y="885" type="line"/>
    </contour>
    <contour>
      <point x="388" y="727" type="line"/>
      <point x="172" y="784"/>
      <point x="84" y="909"/>
      <point x="84" y="1052" type="curve" smooth="yes"/>
      <point x="84" y="1115"/>
      <point x="101" y="1177"/>
      <point x="143" y="1231" type="curve"/>
      <point x="347" y="1187" type="line"/>
      <point x="307" y="1140"/>
      <point x="292" y="1086"/>
      <point x="292" y="1033" type="curve" smooth="yes"/>
      <point x="292" y="951"/>
      <point x="353" y="863"/>
      <point x="548" y="845" type="curve"/>
    </contour>
    <contour>
      <point x="-30" y="1136" type="line"/>
      <point x="-30" y="1283" type="line"/>
      <point x="1400" y="1283" type="line"/>
      <point x="1400" y="1136" type="line"/>
    </contour>
    <contour>
      <point x="938" y="1169" type="line"/>
      <point x="1145" y="1169" type="line"/>
      <point x="1145" y="0" type="line"/>
      <point x="938" y="0" type="line"/>
    </contour>
    <contour>
      <point x="938" y="1283" type="move" name="top"/>
    </contour>
  </outline>
</glyph>
<glyph name="ttadeva" format="1">
  <advance width="1162"/>
  <unicode hex="091F"/>
  <outline>
    <contour>
      <point x="726" y="1174" type="line"/>
      <point x="932" y="1174" type="line"/>
      <point x="932" y="736" type="line"/>
      <point x="634" y="736" type="line"/>
      <point x="412" y="736"/>
      <point x="309" y="635"/>
      <point x="309" y="483" type="curve" smooth="yes"/>
      <point x="309" y="334"/>
      <point x="438" y="226"/>
      <point x="640" y="226" type="curve" smooth="yes"/>
      <point x="747" y="226"/>
      <point x="834" y="242"/>
      <point x="962" y="291" type="curve"/>
      <point x="1004" y="117" type="line"/>
      <point x="879" y="72"/>
      <point x="788" y="57"/>
      <point x="660" y="57" type="curve" smooth="yes"/>
      <point x="322" y="57"/>
      <point x="106" y="257"/>
      <point x="106" y="511" type="curve" smooth="yes"/>
      <point x="106" y="747"/>
      <point x="277" y="896"/>
      <point x="569" y="896" type="curve" smooth="yes"/>
      <point x="765" y="896" type="line"/>
      <point x="726" y="860" type="line"/>
    </contour>
    <contour>
      <point x="1192" y="1136" type="line"/>
      <point x="-30" y="1136" type="line"/>
      <point x="-30" y="1283" type="line"/>
      <point x="1192" y="1283" type="line"/>
    </contour>
    <contour>
      <point x="547" y="65" type="move" name="btm"/>
    </contour>
    <contour>
      <point x="711" y="1283" type="move" name="top"/>
    </contour>
  </outline>
</glyph>
<glyph name="dadeva" format="1">
  <advance width="1139"/>
  <unicode hex="0926"/>
  <outline>
    <contour>
      <point x="-30" y="1136" type="line"/>
      <point x="-30" y="1283" type="line"/>
      <point x="1169" y="1283" type="line"/>
      <point x="1169" y="1136" type="line"/>
    </contour>
    <contour>
      <point x="691" y="190" type="line"/>
      <point x="852" y="247" type="line"/>
      <point x="1054" y="-155" type="line"/>
      <point x="896" y="-222" type="line"/>
    </contour>
    <contour>
      <point x="619" y="112" type="curve" smooth="yes"/>
      <point x="303" y="112"/>
      <point x="105" y="294"/>
      <point x="105" y="539" type="curve" smooth="yes"/>
      <point x="105" y="736"/>
      <point x="249" y="896"/>
      <point x="554" y="896" type="curve" smooth="yes"/>
      <point x="757" y="896" type="line"/>
      <point x="704" y="846" type="line"/>
      <point x="704" y="1177" type="line"/>
      <point x="911" y="1177" type="line"/>
      <point x="911" y="741" type="line"/>
      <point x="613" y="741" type="line"/>
      <point x="387" y="741"/>
      <point x="298" y="639"/>
      <point x="298" y="513" type="curve" smooth="yes"/>
      <point x="298" y="382"/>
      <point x="408" y="270"/>
      <point x="589" y="270" type="curve" smooth="yes"/>
      <point x="664" y="270"/>
      <point x="713" y="276"/>
      <point x="808" y="306" type="curve"/>
      <point x="673" y="223" type="line"/>
      <point x="645" y="273"/>
      <point x="632" y="309"/>
      <point x="632" y="351" type="curve" smooth="yes"/>
      <point x="632" y="396"/>
      <point x="664" y="446"/>
      <point x="763" y="446" type="curve" smooth="yes"/>
      <point x="901" y="446"/>
      <point x="1011" y="381"/>
      <point x="1011" y="303" type="curve" smooth="yes"/>
      <point x="1011" y="211"/>
      <point x="871" y="112"/>
    </contour>
    <contour>
      <point x="865" y="-160" type="move" name="btm"/>
    </contour>
    <contour>
      <point x="679" y="1283" type="move" name="top"/>
    </contour>
  </outline>
</glyph>
<glyph name="dhadeva" format="1">
  <advance width="1355"/>
  <unicode hex="0927"/>
  <outline>
    <contour>
      <point x="727" y="720" type="line"/>
      <point x="716" y="719" type="line"/>
      <point x="511" y="714"/>
      <point x="444" y="627"/>
      <point x="444" y="536" type="curve" smooth="yes"/>
      <point x="444" y="447"/>
      <point x="527" y="387"/>
      <point x="625" y="387" type="curve" smooth="yes"/>
      <point x="759" y="389"/>
      <point x="891" y="468"/>
      <point x="967" y="588" type="curve"/>
      <point x="967" y="311" type="line"/>
      <point x="879" y="251"/>
      <point x="771" y="216"/>
      <point x="649" y="216" type="curve" smooth="yes"/>
      <point x="412" y="216"/>
      <point x="254" y="365"/>
      <point x="254" y="561" type="curve" smooth="yes"/>
      <point x="254" y="719"/>
      <point x="368" y="885"/>
      <point x="663" y="885" type="curve" smooth="yes"/>
      <point x="674" y="885" type="line"/>
    </contour>
    <contour>
      <point x="362" y="727" type="line"/>
      <point x="163" y="778"/>
      <point x="39" y="901"/>
      <point x="39" y="1060" type="curve" smooth="yes"/>
      <point x="39" y="1207"/>
      <point x="154" y="1328"/>
      <point x="364" y="1328" type="curve" smooth="yes"/>
      <point x="455" y="1328"/>
      <point x="521" y="1312"/>
      <point x="582" y="1285" type="curve"/>
      <point x="560" y="1147" type="line"/>
      <point x="511" y="1166"/>
      <point x="469" y="1176"/>
      <point x="404" y="1176" type="curve" smooth="yes"/>
      <point x="305" y="1176"/>
      <point x="243" y="1118"/>
      <point x="243" y="1037" type="curve" smooth="yes"/>
      <point x="243" y="944"/>
      <point x="342" y="864"/>
      <point x="521" y="846" type="curve"/>
    </contour>
    <contour>
      <point x="923" y="1168" type="line"/>
      <point x="1130" y="1168" type="line"/>
      <point x="1130" y="0" type="line"/>
      <point x="923" y="0" type="line"/>
    </contour>
    <contour>
      <point x="1385" y="1136" type="line"/>
      <point x="831" y="1136" type="line"/>
      <point x="831" y="1283" type="line"/>
      <point x="1385" y="1283" type="line"/>
    </contour>
    <contour>
      <point x="923" y="1283" type="move" name="top"/>
    </contour>
  </outline>
</glyph>
<glyph name="badeva" format="1">
  <advance width="1205"/>
  <unicode hex="092C"/>
  <outline>
    <contour>
      <point x="770" y="435" type="line"/>
      <point x="664" y="351" type="line"/>
      <point x="313" y="754" type="line"/>
      <point x="418" y="838" type="line"/>
    </contour>
    <contour>
      <point x="1235" y="1136" type="line"/>
      <point x="-30" y="1136" type="line"/>
      <point x="-30" y="1283" type="line"/>
      <point x="1235" y="1283" type="line"/>
    </contour>
    <contour>
      <point x="807" y="543" type="curve"/>
      <point x="806" y="320" type="line"/>
      <point x="741" y="264"/>
      <point x="643" y="225"/>
      <point x="533" y="225" type="curve" smooth="yes"/>
      <point x="275" y="225"/>
      <point x="98" y="412"/>
      <point x="98" y="633" type="curve" smooth="yes"/>
      <point x="98" y="823"/>
      <point x="249" y="950"/>
      <point x="478" y="950" type="curve" smooth="yes"/>
      <point x="614" y="950"/>
      <point x="735" y="926"/>
      <point x="847" y="877" type="curve"/>
      <point x="847" y="712" type="line"/>
      <point x="721" y="766"/>
      <point x="620" y="789"/>
      <point x="522" y="789" type="curve" smooth="yes"/>
      <point x="363" y="789"/>
      <point x="286" y="712"/>
      <point x="286" y="601" type="curve" smooth="yes"/>
      <point x="286" y="490"/>
      <point x="376" y="390"/>
      <point x="507" y="390" type="curve" smooth="yes"/>
      <point x="617" y="390"/>
      <point x="715" y="437"/>
    </contour>
    <contour>
      <point x="773" y="1169" type="line"/>
      <point x="980" y="1169" type="line"/>
      <point x="980" y="0" type="line"/>
      <point x="773" y="0" type="line"/>
    </contour>
    <contour>
      <point x="773" y="1283" type="move" name="top"/>
    </contour>
  </outline>
</glyph>
<glyph name="shadeva" format="1">
  <advance width="1537"/>
  <unicode hex="0936"/>
  <outline>
    <contour>
      <point x="483" y="489" type="line"/>
      <point x="826" y="94" type="line"/>
      <point x="696" y="-19" type="line"/>
      <point x="328" y="399" type="line"/>
    </contour>
    <contour>
      <point x="244" y="332" type="curve" smooth="yes"/>
      <point x="152" y="332"/>
      <point x="115" y="388"/>
      <point x="115" y="465" type="curve" smooth="yes"/>
      <point x="115" y="555"/>
      <point x="174" y="649"/>
      <point x="261" y="649" type="curve" smooth="yes"/>
      <point x="322" y="649"/>
      <point x="375" y="608"/>
      <point x="446" y="528" type="curve"/>
      <point x="343" y="530" type="line"/>
      <point x="552" y="586"/>
      <point x="677" y="726"/>
      <point x="677" y="906" type="curve" smooth="yes"/>
      <point x="677" y="1031"/>
      <point x="580" y="1146"/>
      <point x="456" y="1146" type="curve" smooth="yes"/>
      <point x="370" y="1146"/>
      <point x="325" y="1093"/>
      <point x="325" y="1029" type="curve" smooth="yes"/>
      <point x="325" y="931"/>
      <point x="432" y="846"/>
      <point x="729" y="845" type="curve"/>
      <point x="677" y="700" type="line"/>
      <point x="284" y="718"/>
      <point x="142" y="877"/>
      <point x="142" y="1048" type="curve" smooth="yes"/>
      <point x="142" y="1185"/>
      <point x="242" y="1306"/>
      <point x="436" y="1306" type="curve" smooth="yes"/>
      <point x="676" y="1306"/>
      <point x="851" y="1139"/>
      <point x="851" y="885" type="curve" smooth="yes"/>
      <point x="851" y="548"/>
      <point x="486" y="332"/>
    </contour>
    <contour>
      <point x="1105" y="1169" type="line"/>
      <point x="1312" y="1169" type="line"/>
      <point x="1312" y="0" type="line"/>
      <point x="1105" y="0" type="line"/>
    </contour>
    <contour>
      <point x="1567" y="1136" type="line"/>
      <point x="929" y="1136" type="line"/>
      <point x="929" y="1283" type="line"/>
      <point x="1567" y="1283" type="line"/>
    </contour>
    <contour>
      <point x="1105" y="1283" type="move" name="top"/>
    </contour>
  </outline>
</glyph>
<glyph name="hadeva" format="1">
  <advance width="1178"/>
  <unicode hex="0939"/>
  <outline>
    <contour>
      <point x="747" y="1162" type="line"/>
      <point x="954" y="1162" type="line"/>
      <point x="954" y="794" type="line"/>
      <point x="451" y="794" type="line"/>
      <point x="332" y="794"/>
      <point x="289" y="745"/>
      <point x="289" y="678" type="curve" smooth="yes"/>
      <point x="289" y="614"/>
      <point x="348" y="561"/>
      <point x="445" y="532" type="curve"/>
      <point x="319" y="409" type="line"/>
      <point x="169" y="487"/>
      <point x="92" y="589"/>
      <point x="92" y="711" type="curve" smooth="yes"/>
      <point x="92" y="846"/>
      <point x="186" y="943"/>
      <point x="397" y="943" type="curve" smooth="yes"/>
      <point x="786" y="943" type="line"/>
      <point x="747" y="899" type="line"/>
    </contour>
    <contour>
      <point x="626" y="600" type="curve" smooth="yes"/>
      <point x="908" y="600"/>
      <point x="1050" y="454"/>
      <point x="1050" y="286" type="curve" smooth="yes"/>
      <point x="1050" y="208"/>
      <point x="1029" y="143"/>
      <point x="994" y="80" type="curve"/>
      <point x="822" y="117" type="line"/>
      <point x="852" y="166"/>
      <point x="867" y="216"/>
      <point x="867" y="272" type="curve" smooth="yes"/>
      <point x="867" y="352"/>
      <point x="794" y="434"/>
      <point x="639" y="435" type="curve" smooth="yes"/>
      <point x="482" y="435"/>
      <point x="383" y="320"/>
      <point x="383" y="204" type="curve" smooth="yes"/>
      <point x="383" y="43"/>
      <point x="518" y="-78"/>
      <point x="950" y="-129" type="curve"/>
      <point x="896" y="-281" type="line"/>
      <point x="414" y="-228"/>
      <point x="187" y="-46"/>
      <point x="187" y="229" type="curve" smooth="yes"/>
      <point x="187" y="422"/>
      <point x="337" y="600"/>
    </contour>
    <contour>
      <point x="1208" y="1136" type="line"/>
      <point x="-30" y="1136" type="line"/>
      <point x="-30" y="1283" type="line"/>
      <point x="1208" y="1283" type="line"/>
    </contour>
    <contour>
      <point x="746" y="1283" type="move" name="top"/>
    </contour>
  </outline>
</glyph>
<glyph name="aavowelsigndeva" format="1">
  <advance width="618"/>
  <unicode hex="093E"/>
  <outline>
    <contour>
      <point x="186" y="1169" type="line"/>
      <point x="393" y="1169" type="line"/>
      <point x="393" y="0" type="line"/>
      <point x="186" y="0" type="line"/>
    </contour>
    <contour>
      <point x="648" y="1136" type="line"/>
      <point x="-30" y="1136" type="line"/>
      <point x="-30" y="1283" type="line"/>
      <point x="648" y="1283" type="line"/>
    </contour>
  </outline>
</glyph>
<glyph name="iivowelsigndeva" format="1">
  <advance width="618"/>
  <unicode hex="0940"/>
  <outline>
    <contour>
      <point x="188" y="1239" type="line"/>
      <point x="99" y="1471"/>
      <point x="-54" y="1601"/>
      <point x="-186" y="1601" type="curve" smooth="yes"/>
      <point x="-281" y="1601"/>
      <point x="-326" y="1541"/>
      <point x="-326" y="1462" type="curve" smooth="yes"/>
      <point x="-326" y="1393"/>
      <point x="-293" y="1325"/>
      <point x="-237" y="1256" type="curve"/>
      <point x="-448" y="1256" type="line"/>
      <point x="-491" y="1335"/>
      <point x="-519" y="1414"/>
      <point x="-519" y="1507" type="curve" smooth="yes"/>
      <point x="-519" y="1646"/>
      <point x="-424" y="1782"/>
      <point x="-223" y="1782" type="curve" smooth="yes"/>
      <point x="25" y="1782"/>
      <point x="261" y="1603"/>
      <point x="397" y="1239" type="curve"/>
    </contour>
    <component base="aavowelsigndeva"/>
  </outline>
</glyph>
<glyph name="rvocalicvowelsigndeva" format="1">
  <advance width="0"/>
  <unicode hex="0943"/>
  <outline>
    <contour>
      <point x="-118" y="-471" type="line"/>
      <point x="-188" y="-498"/>
      <point x="-263" y="-516"/>
      <point x="-361" y="-516" type="curve" smooth="yes"/>
      <point x="-538" y="-516"/>
      <point x="-695" y="-413"/>
      <point x="-695" y="-239" type="curve" smooth="yes"/>
      <point x="-695" y="-82"/>
      <point x="-567" y="28"/>
      <point x="-359" y="28" type="curve" smooth="yes"/>
      <point x="-313" y="28"/>
      <point x="-271" y="27"/>
      <point x="-225" y="23" type="curve"/>
      <point x="-225" y="-105" type="line"/>
      <point x="-253" y="-105"/>
      <point x="-295" y="-105"/>
      <point x="-326" y="-105" type="curve" smooth="yes"/>
      <point x="-465" y="-105"/>
      <point x="-525" y="-172"/>
      <point x="-525" y="-253" type="curve" smooth="yes"/>
      <point x="-525" y="-329"/>
      <point x="-461" y="-377"/>
      <point x="-363" y="-377" type="curve" smooth="yes"/>
      <point x="-285" y="-377"/>
      <point x="-222" y="-363"/>
      <point x="-144" y="-330" type="curve"/>
    </contour>
    <contour>
      <point x="-433" y="0" type="move" name="_btm"/>
    </contour>
  </outline>
</glyph>
<glyph name="zerodeva" format="1">
  <advance width="1154"/>
  <unicode hex="0966"/>
  <outline>
    <contour>
      <point x="572" y="1117" type="curve" smooth="yes"/>
      <point x="869" y="1117"/>
      <point x="1051" y="905"/>
      <point x="1051" y="646" type="curve" smooth="yes"/>
      <point x="1051" y="409"/>
      <point x="880" y="203"/>
      <point x="588" y="203" type="curve" smooth="yes"/>
      <point x="301" y="203"/>
      <point x="106" y="410"/>
      <point x="106" y="680" type="curve" smooth="yes"/>
      <point x="106" y="905"/>
      <point x="282" y="1117"/>
    </contour>
    <contour>
      <point x="575" y="383" type="curve" smooth="yes"/>
      <point x="740" y="383"/>
      <point x="854" y="501"/>
      <point x="854" y="665" type="curve" smooth="yes"/>
      <point x="854" y="818"/>
      <point x="747" y="939"/>
      <point x="584" y="939" type="curve" smooth="yes"/>
      <point x="416" y="939"/>
      <point x="308" y="809"/>
      <point x="308" y="656" type="curve" smooth="yes"/>
      <point x="308" y="492"/>
      <point x="429" y="383"/>
    </contour>
  </outline>
</glyph>
<glyph name="fivedeva" format="1">
  <advance width="1148"/>
  <unicode hex="096B"/>
  <outline>
    <contour>
      <point x="322" y="664" type="curve" smooth="yes"/>
      <point x="322" y="511"/>
      <point x="422" y="427"/>
      <point x="547" y="427" type="curve" smooth="yes"/>
      <point x="672" y="427"/>
      <point x="771" y="494"/>
      <point x="834" y="585" type="curve"/>
      <point x="735" y="441" type="line"/>
      <point x="684" y="523"/>
      <point x="668" y="565"/>
      <point x="668" y="609" type="curve" smooth="yes"/>
      <point x="668" y="661"/>
      <point x="706" y="711"/>
      <point x="811" y="711" type="curve" smooth="yes"/>
      <point x="957" y="711"/>
      <point x="1045" y="652"/>
      <point x="1045" y="579" type="curve" smooth="yes"/>
      <point x="1045" y="462"/>
      <point x="845" y="255"/>
      <point x="559" y="255" type="curve" smooth="yes"/>
      <point x="307" y="255"/>
      <point x="123" y="429"/>
      <point x="123" y="674" type="curve" smooth="yes"/>
      <point x="123" y="889"/>
      <point x="240" y="1100"/>
      <point x="473" y="1285" type="curve"/>
      <point x="656" y="1180" type="line"/>
      <point x="426" y="1004"/>
      <point x="322" y="836"/>
    </contour>
    <contour>
      <point x="737" y="454" type="line"/>
      <point x="907" y="525" type="line"/>
      <point x="1197" y="-64" type="line"/>
      <point x="1025" y="-136" type="line"/>
    </contour>
  </outline>
</glyph>
<glyph name="ninedeva" format="1">
  <advance width="978"/>
  <unicode hex="096F"/>
  <outline>
    <contour>
      <point x="403" y="693" type="curve" smooth="yes"/>
      <point x="793" y="289" type="line"/>
      <point x="872" y="207"/>
      <point x="908" y="133"/>
      <point x="908" y="68" type="curve" smooth="yes"/>
      <point x="908" y="3"/>
      <point x="881" y="-59"/>
      <point x="844" y="-110" type="curve"/>
      <point x="645" y="-59" type="line"/>
      <point x="681" y="-13"/>
      <point x="696" y="24"/>
      <point x="696" y="64" type="curve" smooth="yes"/>
      <point x="696" y="104"/>
      <point x="677" y="142"/>
      <point x="622" y="201" type="curve" smooth="yes"/>
      <point x="286" y="553" type="line"/>
      <point x="150" y="694"/>
      <point x="81" y="804"/>
      <point x="81" y="961" type="curve" smooth="yes"/>
      <point x="81" y="1128"/>
      <point x="213" y="1296"/>
      <point x="448" y="1296" type="curve" smooth="yes"/>
      <point x="698" y="1296"/>
      <point x="842" y="1123"/>
      <point x="842" y="927" type="curve" smooth="yes"/>
      <point x="842" y="731"/>
      <point x="693" y="581"/>
      <point x="462" y="555" type="curve"/>
      <point x="351" y="694" type="line"/>
      <point x="549" y="726"/>
      <point x="653" y="811"/>
      <point x="653" y="931" type="curve" smooth="yes"/>
      <point x="653" y="1036"/>
      <point x="578" y="1120"/>
      <point x="462" y="1120" type="curve" smooth="yes"/>
      <point x="351" y="1120"/>
      <point x="280" y="1035"/>
      <point x="280" y="935" type="curve" smooth="yes"/>
      <point x="280" y="851"/>
      <point x="319" y="781"/>
    </contour>
  </outline>
</glyph>
<glyph name="jjyadeva" format="1">
  <advance width="1307"/>
  <unicode hex="097A"/>
  <outline>
    <contour>
      <point x="981" y="535" type="line"/>
      <point x="857" y="446" type="line"/>
      <point x="411" y="1141" type="line"/>
      <point x="535" y="1230" type="line"/>
    </contour>
    <contour>
      <point x="-30" y="1136" type="line"/>
      <point x="-30" y="1283" type="line"/>
      <point x="1337" y="1283" type="line"/>
      <point x="1337" y="1136" type="line"/>
    </contour>
    <contour>
      <point x="364" y="1165" type="line"/>
      <point x="565" y="1165" type="line"/>
      <point x="565" y="977" type="line"/>
      <point x="565" y="771"/>
      <point x="476" y="637"/>
      <point x="260" y="566" type="curve"/>
      <point x="267" y="658" type="line"/>
      <point x="341" y="535"/>
      <point x="464" y="461"/>
      <point x="596" y="461" type="curve" smooth="yes"/>
      <point x="722" y="461"/>
      <point x="844" y="525"/>
      <point x="925" y="655" type="curve"/>
      <point x="925" y="393" type="line"/>
      <point x="855" y="328"/>
      <point x="754" y="290"/>
      <point x="630" y="290" type="curve" smooth="yes"/>
      <point x="411" y="290"/>
      <point x="194" y="424"/>
      <point x="60" y="662" type="curve"/>
      <point x="60" y="668" type="line"/>
      <point x="300" y="749"/>
      <point x="364" y="839"/>
      <point x="364" y="985" type="curve" smooth="yes"/>
    </contour>
    <contour>
      <point x="876" y="1169" type="line"/>
      <point x="1083" y="1169" type="line"/>
      <point x="1083" y="0" type="line"/>
      <point x="876" y="0" type="line"/>
    </contour>
    <contour>
      <point x="876" y="1283" type="move" name="top"/>
    </contour>
  </outline>
</glyph>
<glyph name="emdash.deva" format="1">
  <advance width="1873"/>
  <unicode hex="2014"/>
  <outline>
    <contour>
      <point x="81" y="412" type="line"/>
      <point x="81" y="578" type="line"/>
      <point x="1779" y="578" type="line"/>
      <point x="1779" y="412" type="line"/>
    </contour>
  </outline>
</glyph>
<glyph name="quotedblright.deva" format="1">
  <advance width="1138"/>
  <unicode hex="201D"/>
  <outline>
    <contour>
      <point x="540" y="1296" type="line"/>
      <point x="508" y="1171"/>
      <point x="455" y="1027"/>
      <point x="381" y="865" type="curve"/>
      <point x="228" y="865" type="line"/>
      <point x="270" y="1038"/>
      <point x="300" y="1189"/>
      <point x="318" y="1316" type="curve"/>
      <point x="526" y="1316" type="line"/>
    </contour>
    <contour>
      <point x="915" y="1296" type="line"/>
      <point x="883" y="1171"/>
      <point x="830" y="1027"/>
      <point x="757" y="865" type="curve"/>
      <point x="602" y="865" type="line"/>
      <point x="643" y="1028"/>
      <point x="674" y="1178"/>
      <point x="695" y="1316" type="curve"/>
      <point x="903" y="1316" type="line"/>
    </contour>
  </outline>
</glyph>
<glyph name="uni20B9.deva" format="1">
  <advance width="1169"/>
  <unicode hex="20B9"/>
  <outline>
    <contour>
      <point x="142" y="776" type="line"/>
      <point x="142" y="918" type="line"/>
      <point x="1011" y="918" type="line"/>
      <point x="1011" y="776" type="line"/>
    </contour>
    <contour>
      <point x="142" y="1141" type="line"/>
      <point x="142" y="1283" type="line"/>
      <point x="1011" y="1283" type="line"/>
      <point x="1011" y="1141" type="line"/>
    </contour>
    <contour>
      <point x="205" y="479" type="line"/>
      <point x="208" y="563" type="line"/>
      <point x="488" y="579"/>
      <point x="622" y="688"/>
      <point x="622" y="870" type="curve" smooth="yes"/>
      <point x="622" y="1020"/>
      <point x="496" y="1141"/>
      <point x="327" y="1141" type="curve" smooth="yes"/>
      <point x="307" y="1141" type="line"/>
      <point x="308" y="1266" type="line"/>
      <point x="361" y="1266" type="line"/>
      <point x="618" y="1266"/>
      <point x="813" y="1085"/>
      <point x="813" y="861" type="curve" smooth="yes"/>
      <point x="813" y="637"/>
      <point x="652" y="484"/>
      <point x="406" y="436" type="curve"/>
      <point x="409" y="500" type="line"/>
      <point x="814" y="11" type="line"/>
      <point x="815" y="0" type="line"/>
      <point x="603" y="0" type="line"/>
    </contour>
  </outline>
</glyph>
<glyph name="uni25CC" format="1">
  <advance width="1212"/>
  <unicode hex="25CC"/>
  <outline>
    <contour>
      <point x="671" y="1000" type="curve" smooth="yes"/>
      <point x="671" y="966"/>
      <point x="653" y="948"/>
      <point x="613" y="948" type="curve" smooth="yes"/>
      <point x="575" y="948"/>
      <point x="557" y="969"/>
      <point x="557" y="1002" type="curve" smooth="yes"/>
      <point x="557" y="1035"/>
      <point x="574" y="1055"/>
      <point x="613" y="1055" type="curve" smooth="yes"/>
      <point x="652" y="1055"/>
      <point x="671" y="1034"/>
    </contour>
    <contour>
      <point x="382" y="870" type="curve" smooth="yes"/>
      <point x="382" y="837"/>
      <point x="364" y="816"/>
      <point x="325" y="816" type="curve" smooth="yes"/>
      <point x="288" y="816"/>
      <point x="268" y="837"/>
      <point x="268" y="870" type="curve" smooth="yes"/>
      <point x="268" y="903"/>
      <point x="288" y="925"/>
      <point x="325" y="925" type="curve" smooth="yes"/>
      <point x="364" y="925"/>
      <point x="382" y="903"/>
    </contour>
    <contour>
      <point x="961" y="870" type="curve" smooth="yes"/>
      <point x="961" y="837"/>
      <point x="942" y="816"/>
      <point x="904" y="816" type="curve" smooth="yes"/>
      <point x="865" y="816"/>
      <point x="847" y="837"/>
      <point x="847" y="870" type="curve" smooth="yes"/>
      <point x="847" y="903"/>
      <point x="865" y="925"/>
      <point x="904" y="925" type="curve" smooth="yes"/>
      <point x="942" y="925"/>
      <point x="961" y="903"/>
    </contour>
    <contour>
      <point x="1067" y="593" type="curve" smooth="yes"/>
      <point x="1067" y="559"/>
      <point x="1047" y="539"/>
      <point x="1008" y="539" type="curve" smooth="yes"/>
      <point x="971" y="539"/>
      <point x="953" y="560"/>
      <point x="953" y="593" type="curve" smooth="yes"/>
      <point x="953" y="626"/>
      <point x="971" y="647"/>
      <point x="1008" y="647" type="curve" smooth="yes"/>
      <point x="1047" y="647"/>
      <point x="1067" y="627"/>
    </contour>
    <contour>
      <point x="272" y="593" type="curve" smooth="yes"/>
      <point x="272" y="560"/>
      <point x="252" y="539"/>
      <point x="215" y="539" type="curve" smooth="yes"/>
      <point x="176" y="539"/>
      <point x="158" y="560"/>
      <point x="158" y="593" type="curve" smooth="yes"/>
      <point x="158" y="626"/>
      <point x="176" y="647"/>
      <point x="215" y="647" type="curve" smooth="yes"/>
      <point x="252" y="647"/>
      <point x="272" y="626"/>
    </contour>
    <contour>
      <point x="382" y="315" type="curve" smooth="yes"/>
      <point x="382" y="282"/>
      <point x="364" y="261"/>
      <point x="325" y="261" type="curve" smooth="yes"/>
      <point x="288" y="261"/>
      <point x="268" y="282"/>
      <point x="268" y="315" type="curve" smooth="yes"/>
      <point x="268" y="349"/>
      <point x="288" y="369"/>
      <point x="325" y="369" type="curve" smooth="yes"/>
      <point x="364" y="369"/>
      <point x="382" y="349"/>
    </contour>
    <contour>
      <point x="961" y="315" type="curve" smooth="yes"/>
      <point x="961" y="282"/>
      <point x="942" y="261"/>
      <point x="904" y="261" type="curve" smooth="yes"/>
      <point x="865" y="261"/>
      <point x="847" y="282"/>
      <point x="847" y="315" type="curve" smooth="yes"/>
      <point x="847" y="349"/>
      <point x="865" y="369"/>
      <point x="904" y="369" type="curve" smooth="yes"/>
      <point x="942" y="369"/>
      <point x="961" y="349"/>
    </contour>
    <contour>
      <point x="671" y="184" type="curve" smooth="yes"/>
      <point x="671" y="149"/>
      <point x="653" y="129"/>
      <point x="613" y="129" type="curve" smooth="yes"/>
      <point x="575" y="129"/>
      <point x="557" y="150"/>
      <point x="557" y="184" type="curve" smooth="yes"/>
      <point x="557" y="217"/>
      <point x="575" y="238"/>
      <point x="613" y="238" type="curve" smooth="yes"/>
      <point x="653" y="238"/>
      <point x="671" y="218"/>
    </contour>
  </outline>
</glyph>
<glyph name="baprehalfdeva" format="1">
  <advance width="688"/>
  <outline>
    <contour>
      <point x="718" y="1136" type="line"/>
      <point x="-30" y="1136" type="line"/>
      <point x="-30" y="1283" type="line"/>
      <point x="718" y="1283" type="line"/>
    </contour>
    <contour>
      <point x="766" y="435" type="line"/>
      <point x="660" y="351" type="line"/>
      <point x="309" y="754" type="line"/>
      <point x="414" y="838" type="line"/>
    </contour>
    <contour>
      <point x="773" y="598" type="curve" smooth="yes"/>
      <point x="773" y="691"/>
      <point x="670" y="789"/>
      <point x="523" y="789" type="curve" smooth="yes"/>
      <point x="369" y="789"/>
      <point x="287" y="712"/>
      <point x="287" y="596" type="curve" smooth="yes"/>
      <point x="287" y="482"/>
      <point x="379" y="390"/>
      <point x="509" y="390" type="curve" smooth="yes"/>
      <point x="668" y="390"/>
      <point x="773" y="488"/>
    </contour>
    <contour>
      <point x="950" y="587" type="curve" smooth="yes"/>
      <point x="950" y="395"/>
      <point x="775" y="226"/>
      <point x="530" y="226" type="curve" smooth="yes"/>
      <point x="264" y="226"/>
      <point x="98" y="413"/>
      <point x="98" y="624" type="curve" smooth="yes"/>
      <point x="98" y="812"/>
      <point x="246" y="946"/>
      <point x="477" y="946" type="curve" smooth="yes"/>
      <point x="791" y="946"/>
      <point x="950" y="758"/>
    </contour>
  </outline>
</glyph>
<glyph name="caprehalfdeva" format="1">
  <advance width="910"/>
  <outline>
    <contour>
      <point x="59" y="727" type="line"/>
      <point x="59" y="896" type="line"/>
      <point x="781" y="896" type="line"/>
      <point x="781" y="727" type="line"/>
    </contour>
    <contour>
      <point x="1099" y="614" type="curve"/>
      <point x="1206" y="467" type="line"/>
      <point x="1057" y="306"/>
      <point x="876" y="209"/>
      <point x="678" y="209" type="curve" smooth="yes"/>
      <point x="438" y="209"/>
      <point x="284" y="353"/>
      <point x="284" y="547" type="curve" smooth="yes"/>
      <point x="284" y="723"/>
      <point x="415" y="872"/>
      <point x="679" y="872" type="curve"/>
      <point x="715" y="729" type="line"/>
      <point x="560" y="729"/>
      <point x="474" y="632"/>
      <point x="474" y="532" type="curve" smooth="yes"/>
      <point x="474" y="442"/>
      <point x="546" y="378"/>
      <point x="661" y="378" type="curve" smooth="yes"/>
      <point x="798" y="378"/>
      <point x="958" y="448"/>
    </contour>
    <contour>
      <point x="-30" y="1136" type="line"/>
      <point x="-30" y="1283" type="line"/>
      <point x="940" y="1283" type="line"/>
      <point x="940" y="1136" type="line"/>
    </contour>
  </outline>
</glyph>
<glyph name="ddayadeva" format="1">
  <advance width="2384"/>
  <outline>
    <contour>
      <point x="815" y="801" type="line"/>
      <point x="808" y="950" type="line"/>
      <point x="1366" y="950" type="line"/>
      <point x="1591" y="950"/>
      <point x="1685" y="837"/>
      <point x="1685" y="698" type="curve" smooth="yes"/>
      <point x="1685" y="558"/>
      <point x="1555" y="456"/>
      <point x="1373" y="399" type="curve"/>
      <point x="1379" y="483" type="line"/>
      <point x="1450" y="363"/>
      <point x="1555" y="301"/>
      <point x="1656" y="301" type="curve" smooth="yes"/>
      <point x="1796" y="301"/>
      <point x="1907" y="368"/>
      <point x="1991" y="497" type="curve"/>
      <point x="1990" y="230" type="line"/>
      <point x="1916" y="165"/>
      <point x="1830" y="130"/>
      <point x="1713" y="130" type="curve" smooth="yes"/>
      <point x="1503" y="130"/>
      <point x="1302" y="263"/>
      <point x="1180" y="497" type="curve"/>
      <point x="1180" y="502" type="line"/>
      <point x="1405" y="557"/>
      <point x="1497" y="622"/>
      <point x="1497" y="695" type="curve" smooth="yes"/>
      <point x="1497" y="760"/>
      <point x="1452" y="801"/>
      <point x="1331" y="801" type="curve" smooth="yes"/>
    </contour>
    <contour>
      <point x="1072" y="1136" type="line"/>
      <point x="1072" y="1283" type="line"/>
      <point x="2414" y="1283" type="line"/>
      <point x="2414" y="1136" type="line"/>
    </contour>
    <contour>
      <point x="1952" y="1169" type="line"/>
      <point x="2159" y="1169" type="line"/>
      <point x="2159" y="-24" type="line"/>
      <point x="1952" y="-24" type="line"/>
    </contour>
    <component base="ddadeva"/>
    <contour>
      <point x="1952" y="1283" type="move" name="top"/>
    </contour>
  </outline>
</glyph>
<glyph name="dddha2deva" format="1">
  <advance width="1187"/>
  <outline>
    <contour>
      <point x="741" y="1167" type="line"/>
      <point x="947" y="1167" type="line"/>
      <point x="947" y="801" type="line"/>
      <point x="485" y="801" type="line"/>
      <point x="378" y="801"/>
      <point x="337" y="753"/>
      <point x="337" y="692" type="curve" smooth="yes"/>
      <point x="337" y="631"/>
      <point x="381" y="584"/>
      <point x="470" y="554" type="curve"/>
      <point x="385" y="564" type="line"/>
      <point x="475" y="605"/>
      <point x="574" y="631"/>
      <point x="708" y="631" type="curve" smooth="yes"/>
      <point x="915" y="631"/>
      <point x="1062" y="516"/>
      <point x="1062" y="342" type="curve" smooth="yes"/>
      <point x="1062" y="163"/>
      <point x="924" y="24"/>
      <point x="631" y="24" type="curve" smooth="yes"/>
      <point x="447" y="24"/>
      <point x="282" y="68"/>
      <point x="82" y="175" type="curve"/>
      <point x="130" y="338" type="line"/>
      <point x="306" y="230"/>
      <point x="460" y="184"/>
      <point x="614" y="184" type="curve" smooth="yes"/>
      <point x="787" y="184"/>
      <point x="870" y="255"/>
      <point x="870" y="343" type="curve" smooth="yes"/>
      <point x="870" y="424"/>
      <point x="802" y="470"/>
      <point x="683" y="470" type="curve" smooth="yes"/>
      <point x="591" y="470"/>
      <point x="500" y="441"/>
      <point x="433" y="405" type="curve"/>
      <point x="424" y="405" type="line"/>
      <point x="233" y="491"/>
      <point x="152" y="600"/>
      <point x="152" y="722" type="curve" smooth="yes"/>
      <point x="152" y="840"/>
      <point x="236" y="950"/>
      <point x="454" y="950" type="curve" smooth="yes"/>
      <point x="793" y="950" type="line"/>
      <point x="741" y="897" type="line"/>
    </contour>
    <contour>
      <point x="1217" y="1136" type="line"/>
      <point x="-30" y="1136" type="line"/>
      <point x="-30" y="1283" type="line"/>
      <point x="1217" y="1283" type="line"/>
    </contour>
    <component base="nuktadeva" xOffset="952" yOffset="191"/>
    <contour>
      <point x="506" y="35" type="move" name="btm"/>
    </contour>
    <contour>
      <point x="739" y="1283" type="move" name="top"/>
    </contour>
  </outline>
</glyph>
<glyph name="hamadeva" format="1">
  <advance width="1784"/>
  <outline>
    <contour>
      <point x="365" y="182" type="curve" smooth="yes"/>
      <point x="365" y="21"/>
      <point x="468" y="-117"/>
      <point x="707" y="-283" type="curve"/>
      <point x="586" y="-389" type="line"/>
      <point x="328" y="-212"/>
      <point x="184" y="-19"/>
      <point x="184" y="213" type="curve" smooth="yes"/>
      <point x="184" y="420"/>
      <point x="329" y="600"/>
      <point x="621" y="600" type="curve" smooth="yes"/>
      <point x="890" y="600"/>
      <point x="1061" y="434"/>
      <point x="1061" y="184" type="curve" smooth="yes"/>
      <point x="1061" y="106" type="line"/>
      <point x="1007" y="166" type="line"/>
      <point x="1422" y="166" type="line"/>
      <point x="1422" y="-1" type="line"/>
      <point x="1022" y="-1" type="line"/>
      <point x="1061" y="34" type="line"/>
      <point x="1061" y="-93" type="line"/>
      <point x="1061" y="-149"/>
      <point x="1036" y="-181"/>
      <point x="985" y="-181" type="curve" smooth="yes"/>
      <point x="942" y="-181"/>
      <point x="880" y="-146"/>
      <point x="824" y="-91" type="curve" smooth="yes"/>
      <point x="764" y="-32"/>
      <point x="720" y="37"/>
      <point x="720" y="88" type="curve" smooth="yes"/>
      <point x="720" y="135"/>
      <point x="750" y="166"/>
      <point x="809" y="166" type="curve" smooth="yes"/>
      <point x="902" y="166" type="line"/>
      <point x="876" y="121" type="line"/>
      <point x="876" y="210" type="line"/>
      <point x="876" y="343"/>
      <point x="792" y="439"/>
      <point x="635" y="439" type="curve" smooth="yes"/>
      <point x="464" y="439"/>
      <point x="365" y="334"/>
    </contour>
    <contour>
      <point x="799" y="1162" type="line"/>
      <point x="1007" y="1162" type="line"/>
      <point x="1007" y="794" type="line"/>
      <point x="451" y="794" type="line"/>
      <point x="333" y="794"/>
      <point x="289" y="746"/>
      <point x="289" y="680" type="curve" smooth="yes"/>
      <point x="289" y="612"/>
      <point x="348" y="561"/>
      <point x="445" y="532" type="curve"/>
      <point x="319" y="409" type="line"/>
      <point x="168" y="489"/>
      <point x="92" y="587"/>
      <point x="92" y="714" type="curve" smooth="yes"/>
      <point x="92" y="842"/>
      <point x="185" y="943"/>
      <point x="396" y="943" type="curve" smooth="yes"/>
      <point x="838" y="943" type="line"/>
      <point x="799" y="899" type="line"/>
    </contour>
    <contour>
      <point x="-30" y="1136" type="line"/>
      <point x="-30" y="1283" type="line"/>
      <point x="1814" y="1283" type="line"/>
      <point x="1814" y="1136" type="line"/>
    </contour>
    <contour>
      <point x="1359" y="1158" type="line"/>
      <point x="1566" y="1158" type="line"/>
      <point x="1566" y="-291" type="line"/>
      <point x="1359" y="-291" type="line"/>
    </contour>
    <contour>
      <point x="1359" y="-291" type="move" name="btm"/>
    </contour>
    <contour>
      <point x="1359" y="1283" type="move" name="top"/>
    </contour>
  </outline>
</glyph>
<glyph name="harauudeva" format="1">
  <advance width="1219"/>
  <outline>
    <contour>
      <point x="899" y="447" type="line"/>
      <point x="673" y="81" type="line"/>
      <point x="529" y="150" type="line"/>
      <point x="749" y="515" type="line"/>
    </contour>
    <contour>
      <point x="651" y="604" type="curve" smooth="yes"/>
      <point x="940" y="604"/>
      <point x="1097" y="462"/>
      <point x="1097" y="286" type="curve" smooth="yes"/>
      <point x="1097" y="207"/>
      <point x="1077" y="146"/>
      <point x="1042" y="80" type="curve"/>
      <point x="874" y="117" type="line"/>
      <point x="905" y="164"/>
      <point x="920" y="220"/>
      <point x="920" y="277" type="curve" smooth="yes"/>
      <point x="920" y="367"/>
      <point x="848" y="450"/>
      <point x="671" y="451" type="curve" smooth="yes"/>
      <point x="486" y="452"/>
      <point x="382" y="331"/>
      <point x="382" y="204" type="curve" smooth="yes"/>
      <point x="382" y="39"/>
      <point x="515" y="-42"/>
      <point x="747" y="-95" type="curve"/>
      <point x="688" y="-244" type="line"/>
      <point x="410" y="-184"/>
      <point x="188" y="-39"/>
      <point x="188" y="227" type="curve" smooth="yes"/>
      <point x="188" y="433"/>
      <point x="351" y="604"/>
    </contour>
    <contour>
      <point x="796" y="1162" type="line"/>
      <point x="1003" y="1162" type="line"/>
      <point x="1003" y="794" type="line"/>
      <point x="458" y="794" type="line"/>
      <point x="342" y="794"/>
      <point x="296" y="746"/>
      <point x="296" y="680" type="curve" smooth="yes"/>
      <point x="296" y="615"/>
      <point x="350" y="564"/>
      <point x="449" y="533" type="curve"/>
      <point x="321" y="411" type="line"/>
      <point x="171" y="491"/>
      <point x="98" y="592"/>
      <point x="98" y="714" type="curve" smooth="yes"/>
      <point x="98" y="842"/>
      <point x="191" y="943"/>
      <point x="401" y="943" type="curve" smooth="yes"/>
      <point x="835" y="943" type="line"/>
      <point x="796" y="899" type="line"/>
    </contour>
    <contour>
      <point x="1249" y="1136" type="line"/>
      <point x="-30" y="1136" type="line"/>
      <point x="-30" y="1283" type="line"/>
      <point x="1249" y="1283" type="line"/>
    </contour>
    <component base="uuvowelsigndeva" xOffset="942" yOffset="-95"/>
  </outline>
</glyph>
<glyph name="iivowelsign2deva" format="1">
  <advance width="618"/>
  <outline>
    <contour>
      <point x="187" y="1239" type="line"/>
      <point x="98" y="1470"/>
      <point x="-19" y="1598"/>
      <point x="-143" y="1598" type="curve" smooth="yes"/>
      <point x="-228" y="1598"/>
      <point x="-269" y="1545"/>
      <point x="-269" y="1464" type="curve" smooth="yes"/>
      <point x="-269" y="1401"/>
      <point x="-243" y="1326"/>
      <point x="-191" y="1256" type="curve"/>
      <point x="-393" y="1256" type="line"/>
      <point x="-435" y="1332"/>
      <point x="-459" y="1424"/>
      <point x="-459" y="1507" type="curve" smooth="yes"/>
      <point x="-459" y="1648"/>
      <point x="-357" y="1776"/>
      <point x="-172" y="1776" type="curve" smooth="yes"/>
      <point x="66" y="1776"/>
      <point x="261" y="1601"/>
      <point x="396" y="1239" type="curve"/>
    </contour>
    <component base="aavowelsigndeva"/>
  </outline>
</glyph>
<glyph name="iivowelsign3deva" format="1">
  <advance width="618"/>
  <outline>
    <contour>
      <point x="167" y="1239" type="line"/>
      <point x="-88" y="1470"/>
      <point x="-347" y="1596"/>
      <point x="-558" y="1596" type="curve" smooth="yes"/>
      <point x="-711" y="1596"/>
      <point x="-770" y="1519"/>
      <point x="-770" y="1430" type="curve" smooth="yes"/>
      <point x="-770" y="1368"/>
      <point x="-750" y="1313"/>
      <point x="-709" y="1256" type="curve"/>
      <point x="-913" y="1256" type="line"/>
      <point x="-948" y="1327"/>
      <point x="-967" y="1395"/>
      <point x="-967" y="1474" type="curve" smooth="yes"/>
      <point x="-967" y="1630"/>
      <point x="-850" y="1778"/>
      <point x="-594" y="1778" type="curve" smooth="yes"/>
      <point x="-270" y="1778"/>
      <point x="101" y="1595"/>
      <point x="417" y="1239" type="curve"/>
    </contour>
    <component base="aavowelsigndeva"/>
  </outline>
</glyph>
<glyph name="japrehalfdeva" format="1">
  <advance width="1095"/>
  <outline>
    <contour>
      <point x="686" y="686" type="line"/>
      <point x="702" y="746" type="line"/>
      <point x="847" y="671"/>
      <point x="933" y="554"/>
      <point x="933" y="394" type="curve" smooth="yes"/>
      <point x="933" y="231"/>
      <point x="810" y="93"/>
      <point x="612" y="93" type="curve" smooth="yes"/>
      <point x="405" y="93"/>
      <point x="213" y="218"/>
      <point x="49" y="483" type="curve"/>
      <point x="151" y="625" type="line"/>
      <point x="322" y="358"/>
      <point x="459" y="274"/>
      <point x="581" y="274" type="curve" smooth="yes"/>
      <point x="683" y="274"/>
      <point x="749" y="339"/>
      <point x="749" y="433" type="curve" smooth="yes"/>
      <point x="749" y="545"/>
      <point x="648" y="657"/>
      <point x="460" y="708" type="curve"/>
      <point x="460" y="859" type="line"/>
      <point x="1352" y="859" type="line"/>
      <point x="1325" y="686" type="line"/>
    </contour>
    <contour>
      <point x="-30" y="1136" type="line"/>
      <point x="-30" y="1283" type="line"/>
      <point x="1125" y="1283" type="line"/>
      <point x="1125" y="1136" type="line"/>
    </contour>
  </outline>
</glyph>
<glyph name="jharaprehalfdeva" format="1">
  <advance width="1101"/>
  <outline>
    <contour>
      <point x="510" y="148" type="curve"/>
      <point x="530" y="119" type="line"/>
      <point x="788" y="-159" type="line"/>
      <point x="656" y="-250" type="line"/>
      <point x="338" y="98" type="line"/>
      <point x="433" y="32" type="line"/>
      <point x="208" y="32"/>
      <point x="120" y="110"/>
      <point x="120" y="184" type="curve" smooth="yes"/>
      <point x="120" y="248"/>
      <point x="174" y="305"/>
      <point x="252" y="305" type="curve" smooth="yes"/>
      <point x="325" y="305"/>
      <point x="403" y="265"/>
    </contour>
    <contour>
      <point x="1425" y="423" type="line"/>
      <point x="948" y="-121" type="line"/>
      <point x="812" y="-5" type="line"/>
      <point x="1319" y="556" type="line"/>
    </contour>
    <contour>
      <point x="1396" y="463" type="line"/>
      <point x="1297" y="395"/>
      <point x="1173" y="350"/>
      <point x="1034" y="350" type="curve" smooth="yes"/>
      <point x="950" y="350"/>
      <point x="867" y="363"/>
      <point x="806" y="377" type="curve"/>
      <point x="803" y="538" type="line"/>
      <point x="865" y="522"/>
      <point x="923" y="514"/>
      <point x="995" y="514" type="curve" smooth="yes"/>
      <point x="1106" y="514"/>
      <point x="1228" y="554"/>
      <point x="1321" y="635" type="curve"/>
    </contour>
    <contour>
      <point x="643" y="1167" type="line"/>
      <point x="849" y="1167" type="line"/>
      <point x="849" y="801" type="line"/>
      <point x="439" y="801" type="line"/>
      <point x="325" y="801"/>
      <point x="284" y="752"/>
      <point x="284" y="692" type="curve" smooth="yes"/>
      <point x="284" y="638"/>
      <point x="322" y="591"/>
      <point x="410" y="556" type="curve"/>
      <point x="324" y="560" type="line"/>
      <point x="416" y="602"/>
      <point x="511" y="630"/>
      <point x="621" y="630" type="curve" smooth="yes"/>
      <point x="812" y="630"/>
      <point x="935" y="522"/>
      <point x="935" y="363" type="curve" smooth="yes"/>
      <point x="935" y="186"/>
      <point x="755" y="38"/>
      <point x="458" y="38" type="curve"/>
      <point x="422" y="190" type="line"/>
      <point x="639" y="190"/>
      <point x="745" y="272"/>
      <point x="745" y="358" type="curve" smooth="yes"/>
      <point x="745" y="426"/>
      <point x="694" y="471"/>
      <point x="593" y="471" type="curve" smooth="yes"/>
      <point x="525" y="471"/>
      <point x="445" y="441"/>
      <point x="375" y="404" type="curve"/>
      <point x="368" y="404" type="line"/>
      <point x="175" y="495"/>
      <point x="100" y="606"/>
      <point x="100" y="723" type="curve" smooth="yes"/>
      <point x="100" y="843"/>
      <point x="192" y="949"/>
      <point x="404" y="949" type="curve" smooth="yes"/>
      <point x="695" y="949" type="line"/>
      <point x="643" y="897" type="line"/>
    </contour>
    <contour>
      <point x="1131" y="1136" type="line"/>
      <point x="-30" y="1136" type="line"/>
      <point x="-30" y="1283" type="line"/>
      <point x="1131" y="1283" type="line"/>
    </contour>
  </outline>
</glyph>
<glyph name="kaprehalfdeva" format="1">
  <advance width="1226"/>
  <outline>
    <contour>
      <point x="874" y="441" type="curve"/>
      <point x="859" y="696" type="line"/>
      <point x="911" y="737"/>
      <point x="1007" y="781"/>
      <point x="1129" y="781" type="curve" smooth="yes"/>
      <point x="1265" y="781"/>
      <point x="1389" y="743"/>
      <point x="1511" y="642" type="curve"/>
      <point x="1461" y="495" type="line"/>
      <point x="1350" y="577"/>
      <point x="1270" y="609"/>
      <point x="1159" y="609" type="curve" smooth="yes"/>
      <point x="1049" y="609"/>
      <point x="942" y="553"/>
    </contour>
    <contour>
      <point x="-30" y="1136" type="line"/>
      <point x="-30" y="1283" type="line"/>
      <point x="1256" y="1283" type="line"/>
      <point x="1256" y="1136" type="line"/>
    </contour>
    <contour>
      <point x="726" y="576" type="curve"/>
      <point x="726" y="345" type="line"/>
      <point x="651" y="286"/>
      <point x="568" y="255"/>
      <point x="460" y="255" type="curve" smooth="yes"/>
      <point x="239" y="255"/>
      <point x="87" y="420"/>
      <point x="87" y="619" type="curve" smooth="yes"/>
      <point x="87" y="787"/>
      <point x="205" y="922"/>
      <point x="422" y="923" type="curve" smooth="yes"/>
      <point x="547" y="924"/>
      <point x="650" y="893"/>
      <point x="736" y="850" type="curve"/>
      <point x="736" y="683" type="line"/>
      <point x="641" y="737"/>
      <point x="561" y="761"/>
      <point x="467" y="761" type="curve" smooth="yes"/>
      <point x="334" y="761"/>
      <point x="266" y="689"/>
      <point x="266" y="591" type="curve" smooth="yes"/>
      <point x="266" y="489"/>
      <point x="342" y="419"/>
      <point x="449" y="419" type="curve" smooth="yes"/>
      <point x="549" y="419"/>
      <point x="645" y="469"/>
    </contour>
    <contour>
      <point x="706" y="1169" type="line"/>
      <point x="912" y="1169" type="line"/>
      <point x="912" y="0" type="line"/>
      <point x="706" y="0" type="line"/>
    </contour>
  </outline>
</glyph>
<glyph name="laraprehalfdeva" format="1">
  <advance width="1019"/>
  <outline>
    <contour>
      <point x="-30" y="1136" type="line"/>
      <point x="-30" y="1283" type="line"/>
      <point x="1049" y="1283" type="line"/>
      <point x="1049" y="1136" type="line"/>
    </contour>
    <contour>
      <point x="934" y="606" type="curve"/>
      <point x="801" y="504" type="line"/>
      <point x="709" y="647"/>
      <point x="615" y="716"/>
      <point x="501" y="716" type="curve" smooth="yes"/>
      <point x="372" y="716"/>
      <point x="293" y="624"/>
      <point x="293" y="508" type="curve" smooth="yes"/>
      <point x="293" y="373"/>
      <point x="369" y="261"/>
      <point x="536" y="103" type="curve"/>
      <point x="387" y="11" type="line"/>
      <point x="216" y="175"/>
      <point x="103" y="355"/>
      <point x="103" y="542" type="curve" smooth="yes"/>
      <point x="103" y="737"/>
      <point x="241" y="896"/>
      <point x="465" y="896" type="curve" smooth="yes"/>
      <point x="660" y="896"/>
      <point x="817" y="791"/>
    </contour>
    <contour>
      <point x="1218" y="824" type="line"/>
      <point x="1274" y="646" type="line"/>
      <point x="682" y="268" type="line"/>
      <point x="564" y="407" type="line"/>
    </contour>
    <contour>
      <point x="1400" y="361" type="line"/>
      <point x="862" y="-89" type="line"/>
      <point x="749" y="29" type="line"/>
      <point x="1292" y="490" type="line"/>
    </contour>
  </outline>
</glyph>
<glyph name="maprehalfdeva" format="1">
  <advance width="732"/>
  <outline>
    <contour>
      <point x="-30" y="1136" type="line"/>
      <point x="-30" y="1283" type="line"/>
      <point x="762" y="1283" type="line"/>
      <point x="762" y="1136" type="line"/>
    </contour>
    <contour>
      <point x="83" y="592" type="curve" smooth="yes"/>
      <point x="83" y="637"/>
      <point x="110" y="668"/>
      <point x="169" y="668" type="curve" smooth="yes"/>
      <point x="266" y="668" type="line"/>
      <point x="234" y="638" type="line"/>
      <point x="234" y="1175" type="line"/>
      <point x="441" y="1175" type="line"/>
      <point x="441" y="634" type="line"/>
      <point x="409" y="668" type="line"/>
      <point x="945" y="668" type="line"/>
      <point x="971" y="494" type="line"/>
      <point x="402" y="494" type="line"/>
      <point x="441" y="528" type="line"/>
      <point x="441" y="395" type="line"/>
      <point x="441" y="340"/>
      <point x="420" y="307"/>
      <point x="368" y="307" type="curve" smooth="yes"/>
      <point x="318" y="307"/>
      <point x="246" y="343"/>
      <point x="189" y="401" type="curve" smooth="yes"/>
      <point x="128" y="461"/>
      <point x="83" y="537"/>
    </contour>
  </outline>
</glyph>
<glyph name="ngayadeva" format="1">
  <advance width="2569"/>
  <outline>
    <contour>
      <point x="-30" y="1136" type="line"/>
      <point x="-30" y="1283" type="line"/>
      <point x="2599" y="1283" type="line"/>
      <point x="2599" y="1136" type="line"/>
    </contour>
    <contour>
      <point x="883" y="801" type="line"/>
      <point x="876" y="950" type="line"/>
      <point x="1562" y="950" type="line"/>
      <point x="1786" y="950"/>
      <point x="1880" y="848"/>
      <point x="1881" y="707" type="curve" smooth="yes"/>
      <point x="1881" y="572"/>
      <point x="1751" y="471"/>
      <point x="1569" y="415" type="curve"/>
      <point x="1574" y="498" type="line"/>
      <point x="1646" y="379"/>
      <point x="1751" y="317"/>
      <point x="1852" y="317" type="curve" smooth="yes"/>
      <point x="1992" y="317"/>
      <point x="2103" y="384"/>
      <point x="2187" y="513" type="curve"/>
      <point x="2186" y="246" type="line"/>
      <point x="2112" y="181"/>
      <point x="2026" y="146"/>
      <point x="1908" y="146" type="curve" smooth="yes"/>
      <point x="1699" y="146"/>
      <point x="1498" y="279"/>
      <point x="1376" y="513" type="curve"/>
      <point x="1376" y="518" type="line"/>
      <point x="1601" y="573"/>
      <point x="1693" y="636"/>
      <point x="1693" y="706" type="curve" smooth="yes"/>
      <point x="1693" y="769"/>
      <point x="1649" y="801"/>
      <point x="1526" y="801" type="curve" smooth="yes"/>
    </contour>
    <contour>
      <point x="2137" y="1169" type="line"/>
      <point x="2344" y="1169" type="line"/>
      <point x="2344" y="-24" type="line"/>
      <point x="2137" y="-24" type="line"/>
    </contour>
    <contour>
      <point x="1186" y="721" type="curve" smooth="yes"/>
      <point x="1274" y="721"/>
      <point x="1308" y="668"/>
      <point x="1308" y="606" type="curve" smooth="yes"/>
      <point x="1308" y="546"/>
      <point x="1270" y="493"/>
      <point x="1186" y="493" type="curve" smooth="yes"/>
      <point x="1098" y="493"/>
      <point x="1064" y="546"/>
      <point x="1064" y="606" type="curve" smooth="yes"/>
      <point x="1064" y="667"/>
      <point x="1100" y="721"/>
    </contour>
    <contour>
      <point x="741" y="1167" type="line"/>
      <point x="947" y="1167" type="line"/>
      <point x="947" y="801" type="line"/>
      <point x="485" y="801" type="line"/>
      <point x="378" y="801"/>
      <point x="337" y="753"/>
      <point x="337" y="692" type="curve" smooth="yes"/>
      <point x="337" y="631"/>
      <point x="381" y="584"/>
      <point x="470" y="554" type="curve"/>
      <point x="385" y="564" type="line"/>
      <point x="475" y="605"/>
      <point x="574" y="631"/>
      <point x="708" y="631" type="curve" smooth="yes"/>
      <point x="915" y="631"/>
      <point x="1062" y="516"/>
      <point x="1062" y="342" type="curve" smooth="yes"/>
      <point x="1062" y="163"/>
      <point x="924" y="24"/>
      <point x="631" y="24" type="curve" smooth="yes"/>
      <point x="447" y="24"/>
      <point x="282" y="69"/>
      <point x="82" y="175" type="curve"/>
      <point x="130" y="338" type="line"/>
      <point x="306" y="230"/>
      <point x="460" y="183"/>
      <point x="614" y="183" type="curve" smooth="yes"/>
      <point x="787" y="183"/>
      <point x="870" y="255"/>
      <point x="870" y="343" type="curve" smooth="yes"/>
      <point x="870" y="424"/>
      <point x="802" y="470"/>
      <point x="683" y="470" type="curve" smooth="yes"/>
      <point x="591" y="470"/>
      <point x="500" y="441"/>
      <point x="433" y="406" type="curve"/>
      <point x="424" y="406" type="line"/>
      <point x="233" y="492"/>
      <point x="152" y="600"/>
      <point x="152" y="722" type="curve" smooth="yes"/>
      <point x="152" y="840"/>
      <point x="236" y="950"/>
      <point x="454" y="950" type="curve" smooth="yes"/>
      <point x="806" y="950" type="line"/>
      <point x="741" y="897" type="line"/>
    </contour>
    <contour>
      <point x="2137" y="1283" type="move" name="top"/>
    </contour>
  </outline>
</glyph>
<glyph name="raprehalfdeva" format="1">
  <advance width="472"/>
  <outline>
    <contour>
      <point x="-30" y="1136" type="line"/>
      <point x="-30" y="1283" type="line"/>
      <point x="502" y="1283" type="line"/>
      <point x="502" y="1136" type="line"/>
    </contour>
    <contour>
      <point x="762" y="456" type="line"/>
      <point x="656" y="407"/>
      <point x="571" y="389"/>
      <point x="450" y="389" type="curve" smooth="yes"/>
      <point x="317" y="389"/>
      <point x="179" y="426"/>
      <point x="28" y="504" type="curve"/>
      <point x="70" y="664" type="line"/>
      <point x="190" y="603"/>
      <point x="312" y="575"/>
      <point x="417" y="575" type="curve" smooth="yes"/>
      <point x="517" y="575"/>
      <point x="597" y="588"/>
      <point x="699" y="640" type="curve"/>
    </contour>
  </outline>
</glyph>
<glyph name="shaladeva" format="1">
  <advance width="2301"/>
  <outline>
    <contour>
      <point x="172" y="430" type="line"/>
      <point x="78" y="583" type="line"/>
      <point x="362" y="742" type="line"/>
      <point x="576" y="861"/>
      <point x="641" y="936"/>
      <point x="641" y="1024" type="curve" smooth="yes"/>
      <point x="641" y="1098"/>
      <point x="584" y="1151"/>
      <point x="507" y="1151" type="curve" smooth="yes"/>
      <point x="416" y="1151"/>
      <point x="367" y="1097"/>
      <point x="367" y="1023" type="curve" smooth="yes"/>
      <point x="367" y="885"/>
      <point x="587" y="766"/>
      <point x="1117" y="726" type="curve"/>
      <point x="1070" y="575" type="line"/>
      <point x="423" y="612"/>
      <point x="182" y="819"/>
      <point x="182" y="1050" type="curve" smooth="yes"/>
      <point x="182" y="1189"/>
      <point x="290" y="1314"/>
      <point x="490" y="1314" type="curve" smooth="yes"/>
      <point x="698" y="1314"/>
      <point x="816" y="1182"/>
      <point x="816" y="1019" type="curve" smooth="yes"/>
      <point x="816" y="858"/>
      <point x="701" y="728"/>
      <point x="458" y="592" type="curve" smooth="yes"/>
    </contour>
    <contour>
      <point x="1870" y="1169" type="line"/>
      <point x="2076" y="1169" type="line"/>
      <point x="2076" y="0" type="line"/>
      <point x="1870" y="0" type="line"/>
    </contour>
    <contour>
      <point x="941" y="1136" type="line"/>
      <point x="941" y="1283" type="line"/>
      <point x="2331" y="1283" type="line"/>
      <point x="2331" y="1136" type="line"/>
    </contour>
    <contour>
      <point x="1734" y="662" type="curve"/>
      <point x="1608" y="546" type="line"/>
      <point x="1503" y="666"/>
      <point x="1404" y="716"/>
      <point x="1302" y="716" type="curve" smooth="yes"/>
      <point x="1166" y="716"/>
      <point x="1089" y="622"/>
      <point x="1089" y="508" type="curve" smooth="yes"/>
      <point x="1089" y="375"/>
      <point x="1162" y="264"/>
      <point x="1332" y="103" type="curve"/>
      <point x="1184" y="12" type="line"/>
      <point x="1014" y="172"/>
      <point x="898" y="355"/>
      <point x="898" y="540" type="curve" smooth="yes"/>
      <point x="898" y="744"/>
      <point x="1043" y="896"/>
      <point x="1262" y="896" type="curve" smooth="yes"/>
      <point x="1437" y="896"/>
      <point x="1582" y="819"/>
    </contour>
    <contour>
      <point x="1939" y="956" type="line"/>
      <point x="1939" y="706" type="line"/>
      <point x="1499" y="293" type="line"/>
      <point x="1368" y="419" type="line"/>
    </contour>
    <contour>
      <point x="1870" y="1283" type="move" name="top"/>
    </contour>
  </outline>
</glyph>
<glyph name="shanadeva" format="1">
  <advance width="1503"/>
  <outline>
    <contour>
      <point x="172" y="430" type="line"/>
      <point x="78" y="583" type="line"/>
      <point x="362" y="742" type="line"/>
      <point x="576" y="861"/>
      <point x="641" y="936"/>
      <point x="641" y="1024" type="curve" smooth="yes"/>
      <point x="641" y="1098"/>
      <point x="584" y="1151"/>
      <point x="507" y="1151" type="curve" smooth="yes"/>
      <point x="416" y="1151"/>
      <point x="367" y="1097"/>
      <point x="367" y="1023" type="curve" smooth="yes"/>
      <point x="367" y="885"/>
      <point x="580" y="762"/>
      <point x="1182" y="723" type="curve"/>
      <point x="1136" y="571" type="line"/>
      <point x="416" y="609"/>
      <point x="182" y="819"/>
      <point x="182" y="1050" type="curve" smooth="yes"/>
      <point x="182" y="1189"/>
      <point x="290" y="1314"/>
      <point x="490" y="1314" type="curve" smooth="yes"/>
      <point x="698" y="1314"/>
      <point x="816" y="1182"/>
      <point x="816" y="1019" type="curve" smooth="yes"/>
      <point x="816" y="858"/>
      <point x="701" y="728"/>
      <point x="458" y="592" type="curve" smooth="yes"/>
    </contour>
    <contour>
      <point x="1091" y="645" type="line"/>
      <point x="1175" y="497" type="line"/>
      <point x="632" y="147" type="line"/>
      <point x="647" y="218" type="line"/>
      <point x="778" y="12" type="line"/>
      <point x="791" y="-10"/>
      <point x="796" y="-25"/>
      <point x="796" y="-42" type="curve" smooth="yes"/>
      <point x="796" y="-72"/>
      <point x="776" y="-96"/>
      <point x="737" y="-96" type="curve" smooth="yes"/>
      <point x="676" y="-96"/>
      <point x="570" y="-38"/>
      <point x="484" y="49" type="curve" smooth="yes"/>
      <point x="434" y="99"/>
      <point x="410" y="139"/>
      <point x="410" y="172" type="curve" smooth="yes"/>
      <point x="410" y="207"/>
      <point x="426" y="233"/>
      <point x="473" y="260" type="curve" smooth="yes"/>
    </contour>
    <contour>
      <point x="1071" y="1169" type="line"/>
      <point x="1278" y="1169" type="line"/>
      <point x="1278" y="0" type="line"/>
      <point x="1071" y="0" type="line"/>
    </contour>
    <contour>
      <point x="1533" y="1136" type="line"/>
      <point x="922" y="1136" type="line"/>
      <point x="922" y="1283" type="line"/>
      <point x="1533" y="1283" type="line"/>
    </contour>
    <contour>
      <point x="1071" y="1283" type="move" name="top"/>
    </contour>
  </outline>
</glyph>
<glyph name="sharaprehalfdeva" format="1">
  <advance width="997"/>
  <outline>
    <contour>
      <point x="1223" y="542" type="line"/>
      <point x="499" y="50" type="line"/>
      <point x="397" y="198" type="line"/>
      <point x="1064" y="650" type="line"/>
      <point x="1125" y="572" type="line"/>
      <point x="406" y="610"/>
      <point x="182" y="824"/>
      <point x="182" y="1050" type="curve" smooth="yes"/>
      <point x="182" y="1189"/>
      <point x="290" y="1314"/>
      <point x="489" y="1314" type="curve" smooth="yes"/>
      <point x="697" y="1314"/>
      <point x="816" y="1183"/>
      <point x="816" y="1018" type="curve" smooth="yes"/>
      <point x="816" y="858"/>
      <point x="702" y="729"/>
      <point x="459" y="593" type="curve" smooth="yes"/>
      <point x="172" y="430" type="line"/>
      <point x="78" y="583" type="line"/>
      <point x="369" y="746" type="line"/>
      <point x="571" y="859"/>
      <point x="641" y="934"/>
      <point x="641" y="1024" type="curve" smooth="yes"/>
      <point x="641" y="1097"/>
      <point x="584" y="1151"/>
      <point x="507" y="1151" type="curve" smooth="yes"/>
      <point x="416" y="1151"/>
      <point x="367" y="1097"/>
      <point x="367" y="1023" type="curve" smooth="yes"/>
      <point x="367" y="886"/>
      <point x="571" y="766"/>
      <point x="1169" y="724" type="curve"/>
    </contour>
  </outline>
</glyph>
<glyph name="taprehalfdeva" format="1">
  <advance width="672"/>
  <outline>
    <contour>
      <point x="944" y="851" type="line"/>
      <point x="939" y="676" type="line"/>
      <point x="594" y="676" type="line"/>
      <point x="382" y="676"/>
      <point x="315" y="583"/>
      <point x="315" y="468" type="curve" smooth="yes"/>
      <point x="315" y="361"/>
      <point x="356" y="252"/>
      <point x="498" y="40" type="curve"/>
      <point x="326" y="-17" type="line"/>
      <point x="172" y="206"/>
      <point x="117" y="376"/>
      <point x="117" y="514" type="curve" smooth="yes"/>
      <point x="117" y="704"/>
      <point x="248" y="851"/>
      <point x="538" y="851" type="curve" smooth="yes"/>
    </contour>
    <contour>
      <point x="-30" y="1136" type="line"/>
      <point x="-30" y="1283" type="line"/>
      <point x="702" y="1283" type="line"/>
      <point x="702" y="1136" type="line"/>
    </contour>
  </outline>
</glyph>
<glyph name="ttayadeva" format="1">
  <advance width="2314"/>
  <outline>
    <contour>
      <point x="997" y="1136" type="line"/>
      <point x="997" y="1283" type="line"/>
      <point x="2344" y="1283" type="line"/>
      <point x="2344" y="1136" type="line"/>
    </contour>
    <contour>
      <point x="1883" y="1169" type="line"/>
      <point x="2090" y="1169" type="line"/>
      <point x="2090" y="-24" type="line"/>
      <point x="1883" y="-24" type="line"/>
    </contour>
    <contour>
      <point x="803" y="736" type="line"/>
      <point x="796" y="895" type="line"/>
      <point x="1306" y="895" type="line"/>
      <point x="1524" y="895"/>
      <point x="1624" y="789"/>
      <point x="1624" y="649" type="curve" smooth="yes"/>
      <point x="1624" y="503"/>
      <point x="1497" y="419"/>
      <point x="1315" y="362" type="curve"/>
      <point x="1320" y="446" type="line"/>
      <point x="1391" y="327"/>
      <point x="1497" y="265"/>
      <point x="1598" y="265" type="curve" smooth="yes"/>
      <point x="1737" y="265"/>
      <point x="1848" y="331"/>
      <point x="1932" y="461" type="curve"/>
      <point x="1932" y="193" type="line"/>
      <point x="1858" y="128"/>
      <point x="1772" y="93"/>
      <point x="1654" y="93" type="curve" smooth="yes"/>
      <point x="1445" y="93"/>
      <point x="1244" y="226"/>
      <point x="1122" y="460" type="curve"/>
      <point x="1122" y="466" type="line"/>
      <point x="1347" y="520"/>
      <point x="1439" y="574"/>
      <point x="1439" y="644" type="curve" smooth="yes"/>
      <point x="1439" y="705"/>
      <point x="1395" y="736"/>
      <point x="1272" y="736" type="curve" smooth="yes"/>
    </contour>
    <component base="ttadeva"/>
    <contour>
      <point x="1882" y="1283" type="move" name="top"/>
    </contour>
  </outline>
</glyph>
